<svg width="356" height="356" viewBox="0 0 356 356" fill="none" xmlns="http://www.w3.org/2000/svg">
<path fill-rule="evenodd" clip-rule="evenodd" d="M356 178C356 79.6933 276.307 0 178 0C79.6933 0 0 79.6933 0 178C0 276.307 79.6933 356 178 356C276.307 356 356 276.307 356 178ZM136.652 157H140.204V150.784H141.86L144.668 157H148.604L145.316 150.304C146.26 150.032 146.988 149.472 147.5 148.624C148.012 147.776 148.268 146.76 148.268 145.576C148.268 144.76 148.156 144.024 147.932 143.368C147.708 142.712 147.372 142.152 146.924 141.688C146.492 141.224 145.956 140.872 145.316 140.632C144.676 140.376 143.948 140.248 143.132 140.248H136.652V157ZM144.02 147.52C143.7 147.84 143.116 148 142.268 148H140.204V143.152H142.268C143.116 143.152 143.7 143.312 144.02 143.632C144.356 143.952 144.524 144.48 144.524 145.216V145.936C144.524 146.672 144.356 147.2 144.02 147.52ZM154.139 150.856V140.248H150.539V150.376C150.539 151.528 150.611 152.536 150.755 153.4C150.915 154.264 151.211 154.984 151.643 155.56C152.075 156.136 152.675 156.568 153.443 156.856C154.211 157.144 155.203 157.288 156.419 157.288C157.635 157.288 158.627 157.144 159.395 156.856C160.163 156.568 160.763 156.136 161.195 155.56C161.627 154.984 161.915 154.264 162.059 153.4C162.219 152.536 162.299 151.528 162.299 150.376V140.248H158.699V150.856C158.699 151.384 158.675 151.872 158.627 152.32C158.595 152.752 158.499 153.12 158.339 153.424C158.195 153.728 157.971 153.968 157.667 154.144C157.363 154.304 156.947 154.384 156.419 154.384C155.891 154.384 155.475 154.304 155.171 154.144C154.867 153.968 154.635 153.728 154.475 153.424C154.331 153.12 154.235 152.752 154.187 152.32C154.155 151.872 154.139 151.384 154.139 150.856ZM165.457 140.248H171.337C172.985 140.248 174.241 140.648 175.105 141.448C175.985 142.248 176.425 143.336 176.425 144.712C176.425 145.672 176.185 146.44 175.705 147.016C175.241 147.576 174.569 147.984 173.689 148.24V148.384C174.729 148.64 175.529 149.088 176.089 149.728C176.665 150.368 176.953 151.256 176.953 152.392C176.953 153.8 176.505 154.92 175.609 155.752C174.729 156.584 173.489 157 171.889 157H165.457V140.248ZM170.785 154.48C171.649 154.48 172.281 154.336 172.681 154.048C173.081 153.76 173.281 153.232 173.281 152.464V151.768C173.281 151 173.081 150.472 172.681 150.184C172.281 149.896 171.649 149.752 170.785 149.752H168.961V154.48H170.785ZM170.329 147.352C171.177 147.352 171.793 147.216 172.177 146.944C172.561 146.656 172.753 146.144 172.753 145.408V144.688C172.753 143.952 172.561 143.448 172.177 143.176C171.793 142.904 171.177 142.768 170.329 142.768H168.961V147.352H170.329ZM185.728 140.248H179.848V157H186.28C187.88 157 189.12 156.584 190 155.752C190.896 154.92 191.344 153.8 191.344 152.392C191.344 151.256 191.056 150.368 190.48 149.728C189.92 149.088 189.12 148.64 188.08 148.384V148.24C188.96 147.984 189.632 147.576 190.096 147.016C190.576 146.44 190.816 145.672 190.816 144.712C190.816 143.336 190.376 142.248 189.496 141.448C188.632 140.648 187.376 140.248 185.728 140.248ZM187.072 154.048C186.672 154.336 186.04 154.48 185.176 154.48H183.352V149.752H185.176C186.04 149.752 186.672 149.896 187.072 150.184C187.472 150.472 187.672 151 187.672 151.768V152.464C187.672 153.232 187.472 153.76 187.072 154.048ZM186.568 146.944C186.184 147.216 185.568 147.352 184.72 147.352H183.352V142.768H184.72C185.568 142.768 186.184 142.904 186.568 143.176C186.952 143.448 187.144 143.952 187.144 144.688V145.408C187.144 146.144 186.952 146.656 186.568 146.944ZM194.311 140.248H205.015V143.2H197.911V147.04H204.775V149.992H197.911V154.048H205.015V157H194.311V140.248ZM208.605 157H212.157V150.784H213.813L216.621 157H220.557L217.269 150.304C218.213 150.032 218.941 149.472 219.453 148.624C219.965 147.776 220.221 146.76 220.221 145.576C220.221 144.76 220.109 144.024 219.885 143.368C219.661 142.712 219.325 142.152 218.877 141.688C218.445 141.224 217.909 140.872 217.269 140.632C216.629 140.376 215.901 140.248 215.085 140.248H208.605V157ZM215.973 147.52C215.653 147.84 215.069 148 214.221 148H212.157V143.152H214.221C215.069 143.152 215.653 143.312 215.973 143.632C216.309 143.952 216.477 144.48 216.477 145.216V145.936C216.477 146.672 216.309 147.2 215.973 147.52ZM119.125 209.616C120.229 210.064 121.477 210.288 122.869 210.288C123.925 210.288 124.869 210.152 125.701 209.88C126.533 209.592 127.237 209.192 127.813 208.68C128.389 208.168 128.821 207.56 129.109 206.856C129.413 206.136 129.565 205.344 129.565 204.48C129.565 202.24 128.397 200.824 126.061 200.232L124.477 199.824C123.725 199.632 123.197 199.408 122.893 199.152C122.605 198.896 122.461 198.528 122.461 198.048C122.461 197.376 122.677 196.84 123.109 196.44C123.541 196.04 124.197 195.84 125.077 195.84C125.797 195.84 126.429 195.984 126.973 196.272C127.533 196.544 127.997 196.936 128.365 197.448L130.693 195.312C130.213 194.576 129.485 194 128.509 193.584C127.533 193.168 126.445 192.96 125.245 192.96C124.253 192.96 123.357 193.088 122.557 193.344C121.757 193.6 121.077 193.968 120.517 194.448C119.957 194.928 119.525 195.504 119.221 196.176C118.933 196.848 118.789 197.6 118.789 198.432C118.789 199.472 119.061 200.368 119.605 201.12C120.165 201.856 121.053 202.36 122.269 202.632L123.925 203.016C124.597 203.176 125.085 203.392 125.389 203.664C125.709 203.92 125.869 204.328 125.869 204.888C125.869 205.656 125.629 206.264 125.149 206.712C124.685 207.144 123.997 207.36 123.085 207.36C122.333 207.36 121.581 207.208 120.829 206.904C120.077 206.584 119.453 206.104 118.957 205.464L116.725 207.72C117.237 208.536 118.037 209.168 119.125 209.616ZM74.1776 210L76.9856 193.248H87.6896L87.2096 196.176H80.0096L79.3616 200.064H86.2256L85.7456 202.992H78.8576L78.1856 207.072H85.3616L84.8816 210H74.1776ZM93.3442 198.768H93.1042L91.2322 210H88.1362L90.9202 193.248H95.1922L97.1362 204.48H97.3762L99.2482 193.248H102.344L99.5602 210H95.2882L93.3442 198.768ZM140.428 210L140.02 205.944H135.316L133.66 210H129.94L137.308 193.248H142.252L144.076 210H140.428ZM139.372 196.728H139.156L136.516 203.064H139.876L139.372 196.728ZM147.259 193.248L148.867 210H153.931L161.083 193.248H157.195L153.931 201.672L152.059 206.592H151.843L151.627 201.672L151.051 193.248H147.259ZM166.305 210.288C165.297 210.288 164.425 210.144 163.689 209.856C162.953 209.568 162.345 209.152 161.865 208.608C161.385 208.064 161.033 207.4 160.809 206.616C160.585 205.832 160.473 204.952 160.473 203.976C160.473 202.552 160.609 201.176 160.881 199.848C161.169 198.52 161.617 197.352 162.225 196.344C162.833 195.32 163.609 194.504 164.553 193.896C165.513 193.272 166.657 192.96 167.985 192.96C168.993 192.96 169.865 193.104 170.601 193.392C171.337 193.68 171.945 194.096 172.425 194.64C172.905 195.184 173.257 195.848 173.481 196.632C173.705 197.416 173.817 198.296 173.817 199.272C173.817 200.696 173.673 202.072 173.385 203.4C173.113 204.728 172.673 205.904 172.065 206.928C171.457 207.936 170.673 208.752 169.713 209.376C168.769 209.984 167.633 210.288 166.305 210.288ZM166.305 207.408C167.313 207.408 168.049 207.032 168.513 206.28C168.993 205.528 169.345 204.464 169.569 203.088L170.049 200.208C170.145 199.632 170.193 199.056 170.193 198.48C170.193 197.648 170.017 197 169.665 196.536C169.313 196.072 168.753 195.84 167.985 195.84C166.977 195.84 166.233 196.216 165.753 196.968C165.289 197.72 164.945 198.784 164.721 200.16L164.241 203.04C164.145 203.616 164.097 204.192 164.097 204.768C164.097 205.6 164.273 206.248 164.625 206.712C164.977 207.176 165.537 207.408 166.305 207.408ZM178.824 207.36H175.2L174.768 210H185.568L186 207.36H182.376L184.296 195.888H187.92L188.352 193.248H177.552L177.12 195.888H180.744L178.824 207.36ZM192.735 210H189.231L192.039 193.248H198.087C198.823 193.248 199.471 193.36 200.031 193.584C200.607 193.792 201.087 194.096 201.471 194.496C201.855 194.88 202.143 195.344 202.335 195.888C202.543 196.432 202.647 197.04 202.647 197.712C202.647 199.2 202.287 200.432 201.567 201.408C200.863 202.384 199.887 203.048 198.639 203.4L200.919 210H197.175L195.327 203.76H193.791L192.735 210ZM196.167 200.976C197.031 200.976 197.655 200.832 198.039 200.544C198.423 200.256 198.671 199.76 198.783 199.056L198.879 198.48C198.927 198.192 198.951 197.928 198.951 197.688C198.951 197.128 198.783 196.728 198.447 196.488C198.111 196.232 197.647 196.104 197.055 196.104H195.063L194.247 200.976H196.167ZM220.868 193.248L218.06 210H221.612L222.644 203.856H225.5C226.412 203.856 227.236 203.712 227.972 203.424C228.708 203.136 229.332 202.728 229.844 202.2C230.372 201.672 230.772 201.032 231.044 200.28C231.332 199.512 231.476 198.648 231.476 197.688C231.476 197.048 231.372 196.456 231.164 195.912C230.972 195.368 230.684 194.896 230.3 194.496C229.916 194.096 229.436 193.792 228.86 193.584C228.3 193.36 227.652 193.248 226.916 193.248H220.868ZM224.996 200.976H223.124L223.94 196.104H225.812C226.532 196.104 227.036 196.224 227.324 196.464C227.628 196.688 227.78 197.072 227.78 197.616C227.78 197.744 227.772 197.864 227.756 197.976C227.756 198.088 227.748 198.184 227.732 198.264L227.612 198.984C227.484 199.704 227.22 200.216 226.82 200.52C226.42 200.824 225.812 200.976 224.996 200.976ZM232.786 210L235.57 193.248H239.122L236.818 207.072H244.066L243.586 210H232.786ZM250.801 203.76L252.553 193.248H249.025L247.393 203.016C247.313 203.528 247.249 204.016 247.201 204.48C247.153 204.928 247.129 205.36 247.129 205.776C247.129 206.464 247.217 207.088 247.393 207.648C247.569 208.192 247.857 208.664 248.257 209.064C248.673 209.448 249.217 209.752 249.889 209.976C250.577 210.184 251.417 210.288 252.409 210.288C253.609 210.288 254.593 210.144 255.361 209.856C256.145 209.568 256.777 209.136 257.257 208.56C257.753 207.984 258.129 207.272 258.385 206.424C258.657 205.576 258.889 204.592 259.081 203.472L260.785 193.248H257.257L255.481 203.88C255.385 204.424 255.281 204.912 255.169 205.344C255.057 205.776 254.897 206.144 254.689 206.448C254.497 206.752 254.233 206.992 253.897 207.168C253.561 207.328 253.129 207.408 252.601 207.408C251.865 207.408 251.345 207.248 251.041 206.928C250.753 206.608 250.609 206.144 250.609 205.536C250.609 205.36 250.617 205.128 250.633 204.84C250.665 204.552 250.721 204.192 250.801 203.76ZM266.776 210.288C265.384 210.288 264.136 210.064 263.032 209.616C261.944 209.168 261.144 208.536 260.632 207.72L262.864 205.464C263.36 206.104 263.984 206.584 264.736 206.904C265.488 207.208 266.24 207.36 266.992 207.36C267.904 207.36 268.592 207.144 269.056 206.712C269.536 206.264 269.776 205.656 269.776 204.888C269.776 204.328 269.616 203.92 269.296 203.664C268.992 203.392 268.504 203.176 267.832 203.016L266.176 202.632C264.96 202.36 264.072 201.856 263.512 201.12C262.968 200.368 262.696 199.472 262.696 198.432C262.696 197.6 262.84 196.848 263.128 196.176C263.432 195.504 263.864 194.928 264.424 194.448C264.984 193.968 265.664 193.6 266.464 193.344C267.264 193.088 268.16 192.96 269.152 192.96C270.352 192.96 271.44 193.168 272.416 193.584C273.392 194 274.12 194.576 274.6 195.312L272.272 197.448C271.904 196.936 271.44 196.544 270.88 196.272C270.336 195.984 269.704 195.84 268.984 195.84C268.104 195.84 267.448 196.04 267.016 196.44C266.584 196.84 266.368 197.376 266.368 198.048C266.368 198.528 266.512 198.896 266.8 199.152C267.104 199.408 267.632 199.632 268.384 199.824L269.968 200.232C272.304 200.824 273.472 202.24 273.472 204.48C273.472 205.344 273.32 206.136 273.016 206.856C272.728 207.56 272.296 208.168 271.72 208.68C271.144 209.192 270.44 209.592 269.608 209.88C268.776 210.152 267.832 210.288 266.776 210.288ZM85 183H271C281.493 183 290 191.507 290 202C290 212.493 281.493 221 271 221H85C74.5066 221 66 212.493 66 202C66 191.507 74.5066 183 85 183ZM62 202C62 189.297 72.2975 179 85 179H271C283.703 179 294 189.297 294 202C294 214.703 283.703 225 271 225H85C72.2974 225 62 214.703 62 202Z" fill="black"/>
</svg>
