<svg width="395" height="395" viewBox="0 0 395 395" fill="none" xmlns="http://www.w3.org/2000/svg">
<path fill-rule="evenodd" clip-rule="evenodd" d="M57.8512 0.932674L0.932668 337.149L337.149 394.067L394.067 57.8512L57.8512 0.932674ZM219.551 176.011C220.499 176.642 221.667 177.075 223.055 177.31C224.096 177.487 225.026 177.506 225.844 177.369C226.679 177.234 227.404 176.976 228.02 176.593C228.64 176.195 229.138 175.695 229.516 175.094C229.896 174.476 230.152 173.781 230.283 173.008C230.504 171.699 230.318 170.596 229.723 169.701C229.128 168.805 228.18 168.125 226.879 167.661L225.204 167.061C224.423 166.783 223.876 166.471 223.561 166.126C223.262 165.783 223.161 165.328 223.257 164.76C223.478 163.451 224.386 162.931 225.979 163.2C226.736 163.329 227.391 163.585 227.942 163.971C228.496 164.341 228.953 164.807 229.312 165.371L231.704 163.464C231.235 162.686 230.56 162.021 229.681 161.466C228.801 160.911 227.722 160.526 226.444 160.31C224.567 159.992 223.033 160.186 221.842 160.894C220.654 161.585 219.925 162.727 219.656 164.321C219.45 165.535 219.606 166.625 220.125 167.589C220.646 168.537 221.626 169.263 223.066 169.766L224.746 170.343C225.529 170.605 226.061 170.914 226.341 171.27C226.638 171.629 226.736 172.1 226.638 172.683C226.517 173.393 226.204 173.9 225.699 174.204C225.193 174.508 224.514 174.588 223.662 174.443C222.921 174.318 222.214 174.036 221.542 173.598C220.885 173.162 220.313 172.562 219.826 171.798L217.383 173.721C217.88 174.617 218.603 175.38 219.551 176.011ZM180.012 163.719L179.022 169.564L182.572 170.165L183.561 164.32L190.598 154.533L186.788 153.888L184.388 157.425L182.561 160.451L182.372 160.419L181.643 156.96L180.541 152.831L176.589 152.162L180.012 163.719ZM190.896 154.584L192.478 171.842L197.494 172.691L204.668 156.915L200.906 156.278L197.52 164.346L195.72 168.934L195.531 168.902L195.366 163.982L194.848 155.253L190.896 154.584ZM203.969 173.787L206.765 157.27L217.319 159.057L216.826 161.967L209.822 160.782L209.181 164.568L215.948 165.713L215.456 168.624L208.688 167.478L208.011 171.477L215.015 172.663L214.523 175.574L203.969 173.787ZM91.1187 206.885L96.6835 190.837L107.237 192.623L106.275 195.43L99.1763 194.228L97.8884 197.954L104.656 199.099L103.694 201.906L96.9028 200.756L95.5592 204.667L102.635 205.865L101.673 208.672L91.1187 206.885ZM111.891 199.01L111.655 198.97L107.934 209.732L104.881 209.215L110.423 193.163L114.635 193.876L114.677 205.275L114.913 205.315L118.634 194.553L121.686 195.069L116.145 211.122L111.933 210.409L111.891 199.01ZM139.079 215.296C137.707 215.064 136.514 214.635 135.5 214.009C134.502 213.386 133.819 212.629 133.45 211.739L136.027 209.887C136.41 210.601 136.945 211.178 137.633 211.619C138.324 212.045 139.04 212.32 139.781 212.446C140.68 212.598 141.395 212.5 141.924 212.151C142.472 211.79 142.81 211.23 142.939 210.473C143.032 209.921 142.942 209.492 142.67 209.186C142.415 208.867 141.97 208.573 141.334 208.303L139.766 207.648C138.612 207.176 137.821 206.531 137.391 205.712C136.981 204.88 136.862 203.951 137.036 202.926C137.174 202.105 137.442 201.388 137.838 200.773C138.25 200.162 138.772 199.666 139.404 199.286C140.037 198.906 140.768 198.657 141.6 198.538C142.432 198.419 143.336 198.442 144.314 198.608C145.498 198.808 146.536 199.195 147.428 199.768C148.321 200.341 148.943 201.031 149.293 201.836L146.641 203.554C146.364 202.988 145.972 202.524 145.465 202.162C144.977 201.787 144.378 201.54 143.668 201.42C142.8 201.273 142.12 201.36 141.627 201.683C141.135 202.005 140.832 202.497 140.72 203.16C140.64 203.633 140.721 204.02 140.962 204.321C141.219 204.624 141.702 204.933 142.411 205.248L143.905 205.914C146.11 206.888 147.025 208.479 146.651 210.688C146.507 211.539 146.225 212.295 145.805 212.954C145.403 213.6 144.876 214.128 144.222 214.536C143.569 214.945 142.808 215.222 141.94 215.367C141.074 215.496 140.121 215.473 139.079 215.296ZM156.44 217.943L156.714 213.876L152.076 213.091L149.767 216.814L146.099 216.193L156.16 200.905L161.034 201.731L160.037 218.552L156.44 217.943ZM157.614 204.681L157.401 204.645L153.74 210.452L157.053 211.012L157.614 204.681ZM164.76 219.352L165.971 202.566L169.71 203.199L168.871 211.601L168.263 216.488L168.476 216.524L171.143 211.986L175.767 204.225L179.601 204.874L169.753 220.197L164.76 219.352ZM181.906 222.547C180.912 222.378 180.076 222.091 179.399 221.684C178.721 221.277 178.191 220.765 177.809 220.149C177.426 219.533 177.19 218.819 177.1 218.009C177.01 217.198 177.046 216.312 177.209 215.35C177.447 213.946 177.811 212.612 178.301 211.348C178.806 210.086 179.443 209.01 180.211 208.117C180.981 207.209 181.882 206.534 182.915 206.092C183.965 205.637 185.145 205.52 186.455 205.742C187.449 205.91 188.284 206.198 188.962 206.605C189.639 207.011 190.169 207.523 190.552 208.14C190.934 208.756 191.171 209.47 191.261 210.28C191.351 211.09 191.314 211.977 191.151 212.939C190.914 214.343 190.542 215.676 190.036 216.937C189.546 218.201 188.916 219.287 188.146 220.195C187.378 221.088 186.469 221.761 185.418 222.216C184.386 222.658 183.215 222.768 181.906 222.547ZM182.387 219.707C183.38 219.875 184.169 219.627 184.752 218.963C185.351 218.302 185.875 217.312 186.326 215.992L187.28 213.233C187.471 212.681 187.614 212.121 187.71 211.553C187.849 210.733 187.784 210.065 187.514 209.548C187.245 209.032 186.731 208.71 185.974 208.582C184.98 208.413 184.184 208.66 183.585 209.321C183.002 209.985 182.485 210.977 182.035 212.296L181.081 215.056C180.89 215.608 180.746 216.168 180.65 216.735C180.511 217.556 180.577 218.224 180.846 218.74C181.116 219.257 181.629 219.579 182.387 219.707ZM191.164 221.144L194.738 221.749L198.546 210.759L194.972 210.154L195.839 207.623L206.487 209.426L205.621 211.956L202.048 211.352L198.24 222.342L201.813 222.947L200.946 225.478L190.298 223.675L191.164 221.144ZM208.012 226.674L204.558 226.089L210.122 210.041L216.086 211.05C216.811 211.173 217.431 211.392 217.946 211.706C218.479 212.007 218.902 212.387 219.214 212.846C219.528 213.288 219.735 213.794 219.833 214.362C219.948 214.934 219.949 215.55 219.836 216.213C219.588 217.68 219.027 218.835 218.155 219.677C217.298 220.522 216.225 221.013 214.935 221.152L216.082 228.04L212.39 227.415L211.61 220.954L210.095 220.698L208.012 226.674ZM212.903 218.35C213.754 218.494 214.394 218.456 214.82 218.236C215.247 218.016 215.574 217.569 215.802 216.893L215.993 216.341C216.089 216.065 216.156 215.809 216.196 215.572C216.29 215.02 216.191 214.598 215.9 214.305C215.611 213.997 215.175 213.793 214.591 213.694L212.627 213.362L211.009 218.029L212.903 218.35ZM232.982 230.901L238.547 214.853L244.51 215.863C245.236 215.985 245.856 216.204 246.371 216.518C246.904 216.819 247.327 217.199 247.639 217.658C247.95 218.116 248.156 218.63 248.254 219.198C248.368 219.769 248.372 220.37 248.265 221.001C248.105 221.948 247.819 222.776 247.407 223.485C247.013 224.181 246.512 224.745 245.903 225.178C245.31 225.613 244.627 225.911 243.853 226.072C243.079 226.233 242.243 226.238 241.344 226.085L238.528 225.609L236.485 231.494L232.982 230.901ZM239.482 222.849L241.327 223.162C242.132 223.298 242.757 223.249 243.202 223.016C243.647 222.783 243.993 222.323 244.239 221.634L244.478 220.944C244.507 220.868 244.531 220.775 244.549 220.664C244.584 220.557 244.612 220.44 244.633 220.313C244.724 219.777 244.638 219.373 244.376 219.101C244.132 218.817 243.655 218.614 242.945 218.494L241.099 218.182L239.482 222.849ZM247.502 233.359L253.044 217.307L256.546 217.9L251.967 231.145L259.113 232.355L258.151 235.162L247.502 233.359ZM269.788 220.142L266.306 230.214C266.155 230.626 266.04 230.972 265.96 231.251C265.896 231.532 265.85 231.759 265.82 231.933C265.719 232.532 265.783 233.014 266.014 233.377C266.26 233.744 266.746 233.988 267.472 234.111C267.992 234.199 268.432 234.193 268.79 234.091C269.15 233.973 269.451 233.781 269.691 233.513C269.947 233.248 270.166 232.912 270.348 232.505C270.531 232.098 270.715 231.634 270.9 231.113L274.426 220.927L277.904 221.516L274.518 231.312C274.142 232.384 273.749 233.316 273.339 234.106C272.945 234.9 272.455 235.539 271.87 236.024C271.301 236.512 270.605 236.832 269.784 236.985C268.979 237.141 267.985 237.119 266.802 236.919C265.824 236.753 265.013 236.51 264.369 236.19C263.744 235.857 263.258 235.467 262.912 235.019C262.585 234.558 262.379 234.044 262.297 233.478C262.217 232.897 262.234 232.267 262.349 231.589C262.418 231.179 262.514 230.757 262.636 230.323C262.761 229.873 262.906 229.403 263.07 228.911L266.309 219.553L269.788 220.142ZM280.967 239.317C279.594 239.084 278.401 238.655 277.387 238.029C276.39 237.406 275.706 236.649 275.338 235.759L277.915 233.907C278.297 234.621 278.832 235.199 279.52 235.64C280.211 236.065 280.927 236.34 281.668 236.466C282.568 236.618 283.282 236.52 283.812 236.171C284.36 235.81 284.698 235.25 284.826 234.493C284.92 233.941 284.83 233.512 284.557 233.206C284.303 232.887 283.858 232.593 283.222 232.323L281.653 231.668C280.5 231.197 279.708 230.552 279.279 229.733C278.868 228.9 278.749 227.971 278.923 226.946C279.062 226.126 279.329 225.408 279.725 224.794C280.137 224.182 280.659 223.686 281.292 223.306C281.924 222.927 282.656 222.677 283.487 222.558C284.319 222.439 285.224 222.463 286.202 222.628C287.385 222.829 288.423 223.215 289.316 223.788C290.209 224.362 290.83 225.051 291.181 225.857L288.529 227.574C288.252 227.008 287.859 226.544 287.353 226.182C286.864 225.808 286.265 225.56 285.555 225.44C284.688 225.293 284.008 225.381 283.515 225.703C283.022 226.025 282.72 226.518 282.608 227.18C282.527 227.654 282.608 228.04 282.849 228.341C283.106 228.644 283.589 228.953 284.299 229.268L285.793 229.935C287.997 230.908 288.912 232.499 288.538 234.708C288.394 235.56 288.112 236.315 287.692 236.974C287.291 237.62 286.763 238.148 286.11 238.557C285.456 238.965 284.696 239.242 283.827 239.387C282.961 239.516 282.008 239.493 280.967 239.317ZM106.296 182.07L289.687 213.117C300.033 214.868 307 224.675 305.249 235.022C303.497 245.368 293.69 252.335 283.344 250.584L99.9531 219.537C89.607 217.786 82.6396 207.978 84.3911 197.632C86.1426 187.286 95.9498 180.319 106.296 182.07ZM80.4472 196.965C82.5675 184.44 94.4393 176.006 106.964 178.126L290.354 209.173C302.879 211.293 311.313 223.165 309.193 235.689C307.072 248.214 295.2 256.648 282.676 254.527L99.2855 223.481C86.7611 221.361 78.327 209.489 80.4472 196.965Z" fill="black"/>
</svg>
