<svg width="470" height="485" viewBox="0 0 470 485" fill="none" xmlns="http://www.w3.org/2000/svg">
<path fill-rule="evenodd" clip-rule="evenodd" d="M470 385.876V0L0 135.648L105.273 485L470 385.876ZM309.493 180.719H299.15V197.528H309.493V194.566H302.628V190.496H309.261V187.534H302.628V183.681H309.493V180.719ZM302.651 178.672L304.692 179.707L307.8 175.469L304.947 174L302.651 178.672ZM290.717 197.817C288.553 197.817 286.945 197.062 285.893 195.553C284.857 194.028 284.339 191.885 284.339 189.123C284.339 186.362 284.857 184.227 285.893 182.718C286.945 181.192 288.553 180.43 290.717 180.43C291.552 180.43 292.286 180.55 292.92 180.791C293.57 181.016 294.126 181.337 294.59 181.754C295.054 182.172 295.433 182.677 295.726 183.271C296.036 183.865 296.275 184.532 296.445 185.27L293.199 186.089C293.106 185.688 292.998 185.318 292.874 184.981C292.75 184.644 292.588 184.355 292.387 184.114C292.201 183.873 291.962 183.689 291.668 183.56C291.39 183.416 291.049 183.344 290.647 183.344C289.704 183.344 289.032 183.729 288.63 184.5C288.243 185.254 288.05 186.306 288.05 187.654V190.592C288.05 191.941 288.243 193 288.63 193.771C289.032 194.525 289.704 194.903 290.647 194.903C291.451 194.903 292.031 194.646 292.387 194.132C292.758 193.618 293.028 192.96 293.199 192.157L296.445 192.976C296.275 193.715 296.036 194.381 295.726 194.975C295.433 195.569 295.054 196.083 294.59 196.516C294.126 196.934 293.57 197.255 292.92 197.479C292.286 197.704 291.552 197.817 290.717 197.817ZM176.897 180.719V191.363C176.897 191.893 176.913 192.382 176.944 192.832C176.99 193.265 177.083 193.634 177.222 193.939C177.377 194.245 177.601 194.485 177.895 194.662C178.188 194.822 178.59 194.903 179.101 194.903C179.611 194.903 180.013 194.822 180.306 194.662C180.6 194.485 180.817 194.245 180.956 193.939C181.11 193.634 181.203 193.265 181.234 192.832C181.281 192.382 181.304 191.893 181.304 191.363V180.719H184.782V190.881C184.782 192.037 184.705 193.048 184.55 193.915C184.411 194.782 184.133 195.505 183.716 196.083C183.298 196.661 182.718 197.094 181.976 197.383C181.234 197.672 180.276 197.817 179.101 197.817C177.925 197.817 176.967 197.672 176.225 197.383C175.483 197.094 174.903 196.661 174.485 196.083C174.068 195.505 173.782 194.782 173.627 193.915C173.488 193.048 173.419 192.037 173.419 190.881V180.719H176.897ZM190.687 186.354H190.432V197.528H187.464V180.719H191.638L195.325 191.893H195.58V180.719H198.549V197.528H194.374L190.687 186.354ZM201.81 180.719V197.528H212.153V194.566H205.288V190.496H211.921V187.534H205.288V183.681H212.153V180.719H201.81ZM229.621 197.528V180.719H240.359V183.681H233.1V187.534H239.593V190.496H233.1V197.528H229.621ZM243.411 194.855V197.528H253.847V194.855H250.368V183.392H253.847V180.719H243.411V183.392H246.89V194.855H243.411ZM265.665 197.528L264.645 193.482H260.215L259.218 197.528H255.693L260.076 180.719H264.993L269.376 197.528H265.665ZM262.535 184.211H262.349L260.772 190.568H264.112L262.535 184.211ZM273.866 186.354H274.121L277.809 197.528H281.983V180.719H279.015V191.893H278.759L275.072 180.719H270.898V197.528H273.866V186.354ZM313.055 180.719H323.399V183.681H316.534V187.534H323.167V190.496H316.534V194.566H323.399V197.528H313.055V180.719ZM160 207.81V224.619H163.502V218.503H166.262C167.05 218.503 167.754 218.382 168.372 218.141C168.99 217.885 169.508 217.523 169.926 217.058C170.359 216.592 170.683 216.03 170.9 215.372C171.116 214.714 171.225 213.975 171.225 213.157C171.225 212.338 171.116 211.599 170.9 210.941C170.683 210.283 170.359 209.721 169.926 209.255C169.508 208.79 168.99 208.437 168.372 208.196C167.754 207.939 167.05 207.81 166.262 207.81H160ZM165.38 215.589H163.502V210.724H165.38C166.2 210.724 166.764 210.885 167.073 211.206C167.398 211.527 167.56 212.057 167.56 212.795V213.518C167.56 214.256 167.398 214.786 167.073 215.107C166.764 215.428 166.2 215.589 165.38 215.589ZM182.231 224.619L181.211 220.574H176.781L175.784 224.619H172.259L176.642 207.81H181.559L185.942 224.619H182.231ZM179.101 211.302H178.915L177.338 217.66H180.678L179.101 211.302ZM189.203 224.21C190.208 224.676 191.391 224.908 192.751 224.908C193.772 224.908 194.661 224.772 195.418 224.499C196.191 224.226 196.84 223.849 197.366 223.367C197.892 222.869 198.286 222.291 198.549 221.633C198.812 220.959 198.943 220.228 198.943 219.442C198.943 218.109 198.588 217.05 197.876 216.263C197.165 215.476 196.152 214.963 194.838 214.722L193.145 214.409C192.357 214.264 191.785 214.048 191.429 213.759C191.089 213.47 190.919 213.036 190.919 212.458C190.919 211.126 191.7 210.459 193.261 210.459C194.003 210.459 194.668 210.604 195.256 210.893C195.843 211.166 196.353 211.551 196.786 212.049L198.758 209.761C198.186 209.071 197.436 208.525 196.508 208.123C195.58 207.722 194.49 207.521 193.238 207.521C191.398 207.521 189.968 207.971 188.948 208.87C187.927 209.753 187.417 211.005 187.417 212.627C187.417 213.863 187.742 214.914 188.391 215.781C189.04 216.632 190.092 217.186 191.545 217.443L193.238 217.732C194.027 217.86 194.583 218.077 194.908 218.382C195.248 218.687 195.418 219.137 195.418 219.731C195.418 220.453 195.202 221.007 194.769 221.392C194.336 221.778 193.702 221.97 192.867 221.97C192.14 221.97 191.421 221.81 190.71 221.489C190.015 221.168 189.373 220.67 188.785 219.996L186.768 222.308C187.386 223.11 188.198 223.744 189.203 224.21ZM221.189 224.908C219.024 224.908 217.416 224.154 216.365 222.645C215.329 221.119 214.811 218.976 214.811 216.215C214.811 213.454 215.329 211.318 216.365 209.809C217.416 208.284 219.024 207.521 221.189 207.521C222.024 207.521 222.758 207.642 223.392 207.883C224.041 208.107 224.598 208.429 225.062 208.846C225.525 209.263 225.904 209.769 226.198 210.363C226.507 210.957 226.747 211.623 226.917 212.362L223.67 213.181C223.577 212.779 223.469 212.41 223.345 212.073C223.222 211.736 223.059 211.447 222.858 211.206C222.673 210.965 222.433 210.78 222.139 210.652C221.861 210.508 221.521 210.435 221.119 210.435C220.176 210.435 219.503 210.821 219.101 211.591C218.715 212.346 218.522 213.397 218.522 214.746V217.684C218.522 219.032 218.715 220.092 219.101 220.863C219.503 221.617 220.176 221.994 221.119 221.994C221.923 221.994 222.503 221.738 222.858 221.224C223.229 220.71 223.5 220.052 223.67 219.249L226.917 220.068C226.747 220.806 226.507 221.473 226.198 222.067C225.904 222.661 225.525 223.174 225.062 223.608C224.598 224.025 224.041 224.346 223.392 224.571C222.758 224.796 222.024 224.908 221.189 224.908ZM229.923 222.621C230.959 224.146 232.559 224.908 234.723 224.908C236.888 224.908 238.48 224.146 239.501 222.621C240.537 221.095 241.054 218.96 241.054 216.215C241.054 213.47 240.537 211.334 239.501 209.809C238.48 208.284 236.888 207.521 234.723 207.521C232.559 207.521 230.959 208.284 229.923 209.809C228.902 211.334 228.392 213.47 228.392 216.215C228.392 218.96 228.902 221.095 229.923 222.621ZM236.764 220.863C236.393 221.617 235.713 221.994 234.723 221.994C233.734 221.994 233.046 221.617 232.659 220.863C232.288 220.092 232.103 219.032 232.103 217.684V214.746C232.103 213.397 232.288 212.346 232.659 211.591C233.046 210.821 233.734 210.435 234.723 210.435C235.713 210.435 236.393 210.821 236.764 211.591C237.151 212.346 237.344 213.397 237.344 214.746V217.66C237.344 219.024 237.151 220.092 236.764 220.863ZM251.667 217.13L251.853 212.434H251.644L248.629 221.079L245.614 212.434H245.405L245.591 217.13V224.619H242.576V207.81H246.681L248.675 213.47H248.861L250.855 207.81H254.682V224.619H251.667V217.13ZM265.758 212.434L265.573 217.13V224.619H268.588V207.81H264.761L262.767 213.47H262.581L260.587 207.81H256.482V224.619H259.497V217.13L259.311 212.434H259.52L262.535 221.079L265.549 212.434H265.758ZM271.338 224.619V207.81H281.682V210.772H274.817V214.626H281.45V217.588H274.817V221.657H281.682V224.619H271.338ZM299.428 207.81V224.619H309.887V221.657H302.93V207.81H299.428ZM313.055 224.619V207.81H323.399V210.772H316.534V214.626H323.167V217.588H316.534V221.657H323.399V224.619H313.055ZM328.26 224.21C329.265 224.676 330.447 224.908 331.808 224.908C332.828 224.908 333.717 224.772 334.475 224.499C335.248 224.226 335.897 223.849 336.423 223.367C336.949 222.869 337.343 222.291 337.606 221.633C337.869 220.959 338 220.228 338 219.442C338 218.109 337.644 217.05 336.933 216.263C336.222 215.476 335.209 214.963 333.895 214.722L332.202 214.409C331.414 214.264 330.842 214.048 330.486 213.759C330.146 213.47 329.976 213.036 329.976 212.458C329.976 211.126 330.757 210.459 332.318 210.459C333.06 210.459 333.725 210.604 334.313 210.893C334.9 211.166 335.41 211.551 335.843 212.049L337.814 209.761C337.242 209.071 336.493 208.525 335.565 208.123C334.637 207.722 333.547 207.521 332.295 207.521C330.455 207.521 329.025 207.971 328.005 208.87C326.984 209.753 326.474 211.005 326.474 212.627C326.474 213.863 326.799 214.914 327.448 215.781C328.097 216.632 329.149 217.186 330.602 217.443L332.295 217.732C333.083 217.86 333.64 218.077 333.965 218.382C334.305 218.687 334.475 219.137 334.475 219.731C334.475 220.453 334.258 221.007 333.826 221.392C333.393 221.778 332.759 221.97 331.924 221.97C331.197 221.97 330.478 221.81 329.767 221.489C329.071 221.168 328.43 220.67 327.842 219.996L325.825 222.308C326.443 223.11 327.255 223.744 328.26 224.21ZM216.996 251.711L215.975 247.665H211.546L210.548 251.711H207.023L211.406 234.902H216.323L220.706 251.711H216.996ZM213.865 238.394H213.679L212.102 244.751H215.442L213.865 238.394ZM225.567 245.546V234.902H222.089V245.065C222.089 246.22 222.158 247.232 222.297 248.099C222.452 248.966 222.738 249.688 223.155 250.266C223.573 250.844 224.153 251.278 224.895 251.567C225.637 251.856 226.595 252 227.77 252C228.945 252 229.904 251.856 230.646 251.567C231.388 251.278 231.968 250.844 232.385 250.266C232.803 249.688 233.081 248.966 233.22 248.099C233.375 247.232 233.452 246.22 233.452 245.065V234.902H229.974V245.546C229.974 246.076 229.95 246.566 229.904 247.015C229.873 247.449 229.78 247.818 229.626 248.123C229.487 248.428 229.27 248.669 228.976 248.845C228.683 249.006 228.281 249.086 227.77 249.086C227.26 249.086 226.858 249.006 226.564 248.845C226.271 248.669 226.047 248.428 225.892 248.123C225.753 247.818 225.66 247.449 225.614 247.015C225.583 246.566 225.567 246.076 225.567 245.546ZM243.415 237.864V251.711H239.937V237.864H235.275V234.902H248.077V237.864H243.415ZM250.387 251.711H253.819V245.474H255.419L258.133 251.711H261.936L258.759 244.992C259.671 244.719 260.375 244.157 260.869 243.307C261.364 242.456 261.612 241.436 261.612 240.248C261.612 239.429 261.503 238.691 261.287 238.033C261.07 237.374 260.746 236.813 260.313 236.347C259.895 235.881 259.377 235.528 258.759 235.287C258.141 235.031 257.437 234.902 256.649 234.902H250.387V251.711ZM257.507 242.199C257.197 242.52 256.633 242.68 255.814 242.68H253.819V237.816H255.814C256.633 237.816 257.197 237.977 257.507 238.298C257.831 238.619 257.994 239.149 257.994 239.887V240.609C257.994 241.348 257.831 241.878 257.507 242.199ZM264.385 234.902H274.729V237.864H267.864V241.717H274.497V244.679H267.864V248.749H274.729V251.711H264.385V234.902ZM279.59 251.302C280.595 251.767 281.777 252 283.138 252C284.158 252 285.047 251.864 285.805 251.591C286.578 251.318 287.227 250.94 287.753 250.459C288.279 249.961 288.673 249.383 288.936 248.725C289.199 248.051 289.33 247.32 289.33 246.534C289.33 245.201 288.975 244.141 288.263 243.355C287.552 242.568 286.539 242.054 285.225 241.814L283.532 241.5C282.744 241.356 282.172 241.139 281.816 240.85C281.476 240.561 281.306 240.128 281.306 239.55C281.306 238.217 282.087 237.551 283.648 237.551C284.39 237.551 285.055 237.696 285.643 237.985C286.23 238.257 286.74 238.643 287.173 239.14L289.145 236.853C288.573 236.162 287.823 235.617 286.895 235.215C285.967 234.814 284.877 234.613 283.625 234.613C281.785 234.613 280.355 235.063 279.335 235.962C278.314 236.845 277.804 238.097 277.804 239.718C277.804 240.955 278.129 242.006 278.778 242.873C279.427 243.724 280.479 244.278 281.932 244.535L283.625 244.824C284.414 244.952 284.97 245.169 285.295 245.474C285.635 245.779 285.805 246.228 285.805 246.822C285.805 247.545 285.589 248.099 285.156 248.484C284.723 248.869 284.089 249.062 283.254 249.062C282.527 249.062 281.808 248.902 281.097 248.58C280.401 248.259 279.76 247.762 279.172 247.087L277.155 249.399C277.773 250.202 278.585 250.836 279.59 251.302ZM145.215 304.449L148.023 287.697H158.727L158.247 290.625H151.047L150.399 294.513H157.263L156.783 297.441H149.895L149.223 301.521H156.399L155.919 304.449H145.215ZM164.381 293.217H164.141L162.269 304.449H159.173L161.957 287.697H166.229L168.173 298.929H168.413L170.285 287.697H173.381L170.597 304.449H166.325L164.381 293.217ZM193.906 304.737C192.514 304.737 191.266 304.513 190.162 304.065C189.074 303.617 188.274 302.985 187.762 302.169L189.994 299.913C190.49 300.553 191.114 301.033 191.866 301.353C192.618 301.657 193.37 301.809 194.122 301.809C195.034 301.809 195.722 301.593 196.186 301.161C196.666 300.713 196.906 300.105 196.906 299.337C196.906 298.777 196.746 298.369 196.426 298.113C196.122 297.841 195.634 297.625 194.962 297.465L193.306 297.081C192.09 296.809 191.202 296.305 190.642 295.569C190.098 294.817 189.826 293.921 189.826 292.881C189.826 292.049 189.97 291.297 190.258 290.625C190.562 289.953 190.994 289.377 191.554 288.897C192.114 288.417 192.794 288.049 193.594 287.793C194.394 287.537 195.29 287.409 196.282 287.409C197.482 287.409 198.57 287.617 199.546 288.033C200.522 288.449 201.25 289.025 201.73 289.761L199.402 291.897C199.034 291.385 198.57 290.993 198.01 290.721C197.466 290.433 196.834 290.289 196.114 290.289C195.234 290.289 194.578 290.489 194.146 290.889C193.714 291.289 193.498 291.825 193.498 292.497C193.498 292.977 193.642 293.345 193.93 293.601C194.234 293.857 194.762 294.081 195.514 294.273L197.098 294.681C199.434 295.273 200.602 296.689 200.602 298.929C200.602 299.793 200.45 300.585 200.146 301.305C199.858 302.009 199.426 302.617 198.85 303.129C198.274 303.641 197.57 304.041 196.738 304.329C195.906 304.601 194.962 304.737 193.906 304.737ZM211.465 304.449L211.057 300.393H206.353L204.697 304.449H200.977L208.345 287.697H213.289L215.113 304.449H211.465ZM210.409 291.177H210.193L207.553 297.513H210.913L210.409 291.177ZM219.904 304.449L218.296 287.697H222.088L222.664 296.121L222.88 301.041H223.096L224.968 296.121L228.232 287.697H232.12L224.968 304.449H219.904ZM237.342 304.737C236.334 304.737 235.462 304.593 234.726 304.305C233.99 304.017 233.382 303.601 232.902 303.057C232.422 302.513 232.07 301.849 231.846 301.065C231.622 300.281 231.51 299.401 231.51 298.425C231.51 297.001 231.646 295.625 231.918 294.297C232.206 292.969 232.654 291.801 233.262 290.793C233.87 289.769 234.646 288.953 235.59 288.345C236.55 287.721 237.694 287.409 239.022 287.409C240.03 287.409 240.902 287.553 241.638 287.841C242.374 288.129 242.982 288.545 243.462 289.089C243.942 289.633 244.294 290.297 244.518 291.081C244.742 291.865 244.854 292.745 244.854 293.721C244.854 295.145 244.71 296.521 244.422 297.849C244.15 299.177 243.71 300.353 243.102 301.377C242.494 302.385 241.71 303.201 240.75 303.825C239.806 304.433 238.67 304.737 237.342 304.737ZM237.342 301.857C238.35 301.857 239.086 301.481 239.55 300.729C240.03 299.977 240.382 298.913 240.606 297.537L241.086 294.657C241.182 294.081 241.23 293.505 241.23 292.929C241.23 292.097 241.054 291.449 240.702 290.985C240.35 290.521 239.79 290.289 239.022 290.289C238.014 290.289 237.27 290.665 236.79 291.417C236.326 292.169 235.982 293.233 235.758 294.609L235.278 297.489C235.182 298.065 235.134 298.641 235.134 299.217C235.134 300.049 235.31 300.697 235.662 301.161C236.014 301.625 236.574 301.857 237.342 301.857ZM246.237 301.809H249.861L251.781 290.337H248.157L248.589 287.697H259.389L258.957 290.337H255.333L253.413 301.809H257.037L256.605 304.449H245.805L246.237 301.809ZM263.772 304.449H260.268L263.076 287.697H269.124C269.86 287.697 270.508 287.809 271.068 288.033C271.644 288.241 272.124 288.545 272.508 288.945C272.892 289.329 273.18 289.793 273.372 290.337C273.58 290.881 273.684 291.489 273.684 292.161C273.684 293.649 273.324 294.881 272.604 295.857C271.9 296.833 270.924 297.497 269.676 297.849L271.956 304.449H268.212L266.364 298.209H264.828L263.772 304.449ZM267.204 295.425C268.068 295.425 268.692 295.281 269.076 294.993C269.46 294.705 269.708 294.209 269.82 293.505L269.916 292.929C269.964 292.641 269.988 292.377 269.988 292.137C269.988 291.577 269.82 291.177 269.484 290.937C269.148 290.681 268.684 290.553 268.092 290.553H266.1L265.284 295.425H267.204ZM289.097 304.449L291.905 287.697H297.953C298.689 287.697 299.337 287.809 299.897 288.033C300.473 288.241 300.953 288.545 301.337 288.945C301.721 289.345 302.009 289.817 302.201 290.361C302.409 290.905 302.513 291.497 302.513 292.137C302.513 293.097 302.369 293.961 302.081 294.729C301.809 295.481 301.409 296.121 300.881 296.649C300.369 297.177 299.745 297.585 299.009 297.873C298.273 298.161 297.449 298.305 296.537 298.305H293.681L292.649 304.449H289.097ZM294.161 295.425H296.033C296.849 295.425 297.457 295.273 297.857 294.969C298.257 294.665 298.521 294.153 298.649 293.433L298.769 292.713C298.785 292.633 298.793 292.537 298.793 292.425C298.809 292.313 298.817 292.193 298.817 292.065C298.817 291.521 298.665 291.137 298.361 290.913C298.073 290.673 297.569 290.553 296.849 290.553H294.977L294.161 295.425ZM303.823 304.449L306.607 287.697H310.159L307.855 301.521H315.103L314.623 304.449H303.823ZM323.59 287.697L321.838 298.209C321.758 298.641 321.702 299.001 321.67 299.289C321.654 299.577 321.646 299.809 321.646 299.985C321.646 300.593 321.79 301.057 322.078 301.377C322.382 301.697 322.902 301.857 323.638 301.857C324.166 301.857 324.598 301.777 324.934 301.617C325.27 301.441 325.534 301.201 325.726 300.897C325.934 300.593 326.094 300.225 326.206 299.793C326.318 299.361 326.422 298.873 326.518 298.329L328.294 287.697H331.822L330.118 297.921C329.926 299.041 329.694 300.025 329.422 300.873C329.166 301.721 328.79 302.433 328.294 303.009C327.814 303.585 327.182 304.017 326.398 304.305C325.63 304.593 324.646 304.737 323.446 304.737C322.454 304.737 321.614 304.633 320.926 304.425C320.254 304.201 319.71 303.897 319.294 303.513C318.894 303.113 318.606 302.641 318.43 302.097C318.254 301.537 318.166 300.913 318.166 300.225C318.166 299.809 318.19 299.377 318.238 298.929C318.286 298.465 318.35 297.977 318.43 297.465L320.062 287.697H323.59ZM337.813 304.737C336.421 304.737 335.173 304.513 334.069 304.065C332.981 303.617 332.181 302.985 331.669 302.169L333.901 299.913C334.397 300.553 335.021 301.033 335.773 301.353C336.525 301.657 337.277 301.809 338.029 301.809C338.941 301.809 339.629 301.593 340.093 301.161C340.573 300.713 340.813 300.105 340.813 299.337C340.813 298.777 340.653 298.369 340.333 298.113C340.029 297.841 339.541 297.625 338.869 297.465L337.213 297.081C335.997 296.809 335.109 296.305 334.549 295.569C334.005 294.817 333.733 293.921 333.733 292.881C333.733 292.049 333.877 291.297 334.165 290.625C334.469 289.953 334.901 289.377 335.461 288.897C336.021 288.417 336.701 288.049 337.501 287.793C338.301 287.537 339.197 287.409 340.189 287.409C341.389 287.409 342.477 287.617 343.453 288.033C344.429 288.449 345.157 289.025 345.637 289.761L343.309 291.897C342.941 291.385 342.477 290.993 341.917 290.721C341.373 290.433 340.741 290.289 340.021 290.289C339.141 290.289 338.485 290.489 338.053 290.889C337.621 291.289 337.405 291.825 337.405 292.497C337.405 292.977 337.549 293.345 337.837 293.601C338.141 293.857 338.669 294.081 339.421 294.273L341.005 294.681C343.341 295.273 344.509 296.689 344.509 298.929C344.509 299.793 344.357 300.585 344.053 301.305C343.765 302.009 343.333 302.617 342.757 303.129C342.181 303.641 341.477 304.041 340.645 304.329C339.813 304.601 338.869 304.737 337.813 304.737ZM159.494 277.449H338.333C348.827 277.449 357.333 285.956 357.333 296.449C357.333 306.943 348.827 315.449 338.333 315.449H159.494C149 315.449 140.494 306.943 140.494 296.449C140.494 285.956 149 277.449 159.494 277.449ZM136.494 296.449C136.494 283.747 146.791 273.449 159.494 273.449H338.333C351.036 273.449 361.333 283.747 361.333 296.449C361.333 309.152 351.036 319.449 338.333 319.449H159.494C146.791 319.449 136.494 309.152 136.494 296.449Z" fill="black"/>
</svg>
