<svg width="1440" height="71" viewBox="0 0 1440 71" fill="none" xmlns="http://www.w3.org/2000/svg">
<path d="M22.4 1.99197L15.392 44.04C15.072 45.768 14.848 47.208 14.72 48.36C14.656 49.512 14.624 50.44 14.624 51.144C14.624 53.576 15.2 55.432 16.352 56.712C17.568 57.992 19.648 58.632 22.592 58.632C24.704 58.632 26.432 58.312 27.776 57.672C29.12 56.968 30.176 56.008 30.944 54.792C31.776 53.576 32.416 52.104 32.864 50.376C33.312 48.648 33.728 46.696 34.112 44.52L41.216 1.99197H55.328L48.512 42.888C47.744 47.368 46.816 51.304 45.728 54.696C44.704 58.088 43.2 60.936 41.216 63.24C39.296 65.544 36.768 67.272 33.632 68.424C30.56 69.576 26.624 70.152 21.824 70.152C17.856 70.152 14.496 69.736 11.744 68.904C9.05598 68.008 6.87998 66.792 5.21598 65.256C3.61598 63.656 2.46398 61.768 1.75998 59.592C1.05598 57.352 0.703979 54.856 0.703979 52.104C0.703979 50.44 0.799979 48.712 0.991979 46.92C1.18398 45.064 1.43998 43.112 1.75998 41.064L8.28798 1.99197H22.4Z" fill="#1751C3"/>
<path d="M76.3145 24.072H75.3545L67.8665 69H55.4825L66.6185 1.99197H83.7065L91.4825 46.92H92.4425L99.9305 1.99197H112.314L101.178 69H84.0905L76.3145 24.072Z" fill="#1751C3"/>
<path d="M114.197 69L115.925 58.44H130.421L138.101 12.552H123.605L125.333 1.99197H168.533L166.805 12.552H152.309L144.629 58.44H159.125L157.397 69H114.197Z" fill="#1751C3"/>
<path d="M182.319 1.99197H201.999C209.551 1.99197 215.279 4.10397 219.183 8.32797C223.151 12.552 225.135 18.664 225.135 26.664C225.135 33.256 224.431 39.176 223.023 44.424C221.615 49.672 219.535 54.12 216.783 57.768C214.095 61.416 210.735 64.2 206.703 66.12C202.671 68.04 198.063 69 192.879 69H171.087L182.319 1.99197ZM193.167 57.768C197.455 57.768 200.815 56.552 203.247 54.12C205.679 51.624 207.343 47.784 208.239 42.6L210.255 30.504C210.447 29.352 210.575 28.2 210.639 27.048C210.767 25.896 210.831 24.872 210.831 23.976C210.831 16.808 207.471 13.224 200.751 13.224H194.511L187.119 57.768H193.167Z" fill="#1751C3"/>
<path d="M229.898 69L241.13 1.99197H283.946L282.026 13.704H253.226L250.634 29.256H278.09L276.17 40.968H248.618L245.93 57.288H274.634L272.714 69H229.898Z" fill="#1751C3"/>
<path d="M306.564 24.072H305.604L298.116 69H285.732L296.868 1.99197H313.956L321.732 46.92H322.692L330.18 1.99197H342.564L331.428 69H314.34L306.564 24.072Z" fill="#1751C3"/>
<path d="M382.367 13.704L373.151 69H358.943L368.159 13.704H348.767L350.687 1.99197H403.679L401.759 13.704H382.367Z" fill="#1751C3"/>
<path d="M402.009 69L403.737 58.44H418.233L425.913 12.552H411.417L413.145 1.99197H456.345L454.617 12.552H440.121L432.441 58.44H446.937L445.209 69H402.009Z" fill="#1751C3"/>
<path d="M460.148 69L471.38 1.99197H515.732L513.812 13.704H483.476L480.884 29.256H507.956L506.036 40.968H478.964L474.26 69H460.148Z" fill="#1751C3"/>
<path d="M517.134 69L518.862 58.44H533.358L541.038 12.552H526.542L528.271 1.99197H571.47L569.742 12.552H555.246L547.566 58.44H562.062L560.334 69H517.134Z" fill="#1751C3"/>
<path d="M575.273 69L586.505 1.99197H629.321L627.401 13.704H598.601L596.009 29.256H623.465L621.545 40.968H593.993L591.305 57.288H620.009L618.089 69H575.273Z" fill="#1751C3"/>
<path d="M642.819 1.99197H662.499C670.051 1.99197 675.779 4.10397 679.683 8.32797C683.651 12.552 685.635 18.664 685.635 26.664C685.635 33.256 684.931 39.176 683.523 44.424C682.115 49.672 680.036 54.12 677.284 57.768C674.596 61.416 671.235 64.2 667.203 66.12C663.171 68.04 658.563 69 653.379 69H631.587L642.819 1.99197ZM653.667 57.768C657.955 57.768 661.315 56.552 663.747 54.12C666.179 51.624 667.844 47.784 668.74 42.6L670.755 30.504C670.947 29.352 671.075 28.2 671.139 27.048C671.267 25.896 671.331 24.872 671.331 23.976C671.331 16.808 667.971 13.224 661.251 13.224H655.011L647.62 57.768H653.667Z" fill="#1751C3"/>
<path d="M747.96 69L759.193 1.99197H803.544L801.624 13.704H771.288L768.696 29.256H795.768L793.849 40.968H766.776L762.073 69H747.96Z" fill="#1751C3"/>
<path d="M804.947 69L806.675 58.44H821.171L828.851 12.552H814.355L816.083 1.99197H859.283L857.555 12.552H843.059L835.379 58.44H849.875L848.147 69H804.947Z" fill="#1751C3"/>
<path d="M864.333 69L875.469 1.99197H889.677L880.461 57.288H909.453L907.534 69H864.333Z" fill="#1751C3"/>
<path d="M959.432 39.144L963.272 20.232H962.408L944.072 54.696L937.352 20.232H936.488L934.088 39.144L929.096 69H916.808L928.04 1.99197H944.264L948.872 24.744H949.736L961.832 1.99197H977.96L966.728 69H954.44L959.432 39.144Z" fill="#1751C3"/>
<path d="M1000.29 70.152C994.722 70.152 989.73 69.256 985.314 67.464C980.962 65.672 977.762 63.144 975.714 59.88L984.642 50.856C986.626 53.416 989.122 55.336 992.13 56.616C995.138 57.832 998.146 58.44 1001.15 58.44C1004.8 58.44 1007.55 57.576 1009.41 55.848C1011.33 54.056 1012.29 51.624 1012.29 48.552C1012.29 46.312 1011.65 44.68 1010.37 43.656C1009.15 42.568 1007.2 41.704 1004.51 41.064L997.891 39.528C993.027 38.44 989.474 36.424 987.234 33.48C985.058 30.472 983.97 26.888 983.97 22.728C983.97 19.4 984.546 16.392 985.698 13.704C986.914 11.016 988.643 8.71197 990.883 6.79197C993.123 4.87197 995.842 3.39997 999.042 2.37597C1002.24 1.35197 1005.83 0.839966 1009.79 0.839966C1014.59 0.839966 1018.95 1.67197 1022.85 3.33597C1026.75 4.99997 1029.67 7.30396 1031.59 10.248L1022.27 18.792C1020.8 16.744 1018.95 15.176 1016.71 14.088C1014.53 12.936 1012 12.36 1009.12 12.36C1005.6 12.36 1002.98 13.16 1001.25 14.76C999.522 16.36 998.659 18.504 998.659 21.192C998.659 23.112 999.234 24.584 1000.39 25.608C1001.6 26.632 1003.71 27.528 1006.72 28.296L1013.06 29.928C1022.4 32.296 1027.07 37.96 1027.07 46.92C1027.07 50.376 1026.47 53.544 1025.25 56.424C1024.1 59.24 1022.37 61.672 1020.07 63.72C1017.76 65.768 1014.95 67.368 1011.62 68.52C1008.29 69.608 1004.51 70.152 1000.29 70.152Z" fill="#1751C3"/>
<path d="M1116.47 70.152C1112.44 70.152 1108.95 69.576 1106.01 68.424C1103.06 67.272 1100.63 65.608 1098.71 63.432C1096.79 61.256 1095.38 58.6 1094.49 55.464C1093.59 52.328 1093.14 48.808 1093.14 44.904C1093.14 39.208 1093.69 33.704 1094.78 28.392C1095.93 23.08 1097.72 18.408 1100.15 14.376C1102.58 10.28 1105.69 7.01597 1109.46 4.58397C1113.3 2.08797 1117.88 0.839966 1123.19 0.839966C1127.22 0.839966 1130.71 1.41597 1133.66 2.56797C1136.6 3.71997 1139.03 5.38397 1140.95 7.55997C1142.87 9.73597 1144.28 12.392 1145.18 15.528C1146.07 18.664 1146.52 22.184 1146.52 26.088C1146.52 31.784 1145.94 37.288 1144.79 42.6C1143.7 47.912 1141.94 52.616 1139.51 56.712C1137.08 60.744 1133.94 64.008 1130.1 66.504C1126.33 68.936 1121.78 70.152 1116.47 70.152ZM1116.47 58.632C1120.5 58.632 1123.45 57.128 1125.3 54.12C1127.22 51.112 1128.63 46.856 1129.53 41.352L1131.45 29.832C1131.83 27.528 1132.02 25.224 1132.02 22.92C1132.02 19.592 1131.32 17 1129.91 15.144C1128.5 13.288 1126.26 12.36 1123.19 12.36C1119.16 12.36 1116.18 13.864 1114.26 16.872C1112.41 19.88 1111.03 24.136 1110.14 29.64L1108.22 41.16C1107.83 43.464 1107.64 45.768 1107.64 48.072C1107.64 51.4 1108.34 53.992 1109.75 55.848C1111.16 57.704 1113.4 58.632 1116.47 58.632Z" fill="#1751C3"/>
<path d="M1161.84 1.99197H1184.59C1190.42 1.99197 1194.87 3.39997 1197.94 6.21597C1201.01 9.03197 1202.55 12.776 1202.55 17.448C1202.55 26.792 1197.91 32.616 1188.63 34.92L1188.53 35.4C1192.05 36.104 1194.74 37.512 1196.59 39.624C1198.51 41.736 1199.47 44.584 1199.47 48.168C1199.47 51.304 1198.93 54.152 1197.84 56.712C1196.82 59.272 1195.31 61.48 1193.33 63.336C1191.35 65.128 1188.91 66.536 1186.03 67.56C1183.22 68.52 1180.05 69 1176.53 69H1150.61L1161.84 1.99197ZM1173.46 59.016C1176.66 59.016 1179.19 58.472 1181.04 57.384C1182.9 56.296 1184.05 54.44 1184.5 51.816L1184.88 49.512C1185.01 48.936 1185.11 48.328 1185.17 47.688C1185.3 47.048 1185.36 46.536 1185.36 46.152C1185.36 43.912 1184.72 42.312 1183.44 41.352C1182.16 40.392 1180.08 39.912 1177.2 39.912H1169.33L1166.16 59.016H1173.46ZM1176.43 30.408C1179.83 30.408 1182.39 29.928 1184.11 28.968C1185.84 27.944 1186.96 25.992 1187.47 23.112L1187.86 20.808C1187.92 20.488 1187.99 20.04 1188.05 19.464C1188.11 18.824 1188.15 18.28 1188.15 17.832C1188.15 15.656 1187.44 14.152 1186.03 13.32C1184.69 12.424 1182.74 11.976 1180.18 11.976H1174.03L1170.96 30.408H1176.43Z" fill="#1751C3"/>
<path d="M1260.78 1.99197L1252.81 49.608C1250.51 63.304 1242.28 70.152 1228.14 70.152C1221.42 70.152 1216.33 68.424 1212.88 64.968C1209.48 61.448 1207.72 56.872 1207.6 51.24L1220.94 48.744C1221.07 51.56 1221.71 53.928 1222.86 55.848C1224.01 57.704 1226.12 58.632 1229.2 58.632C1231.76 58.632 1233.84 57.864 1235.44 56.328C1237.1 54.792 1238.19 52.424 1238.7 49.224L1244.65 13.704H1222.19L1224.11 1.99197H1260.78Z" fill="#1751C3"/>
<path d="M1266.02 69L1277.26 1.99197H1320.07L1318.15 13.704H1289.35L1286.76 29.256H1314.21L1312.3 40.968H1284.74L1282.05 57.288H1310.76L1308.84 69H1266.02Z" fill="#1751C3"/>
<path d="M1347.78 70.152C1339.91 70.152 1334.08 67.912 1330.31 63.432C1326.59 58.888 1324.74 52.616 1324.74 44.616C1324.74 38.088 1325.47 32.136 1326.95 26.76C1328.42 21.384 1330.5 16.776 1333.19 12.936C1335.87 9.09596 1339.11 6.11996 1342.88 4.00797C1346.72 1.89597 1351.01 0.839966 1355.75 0.839966C1359.46 0.839966 1362.66 1.31997 1365.35 2.27996C1368.1 3.23997 1370.37 4.58397 1372.16 6.31196C1373.95 8.03996 1375.3 10.12 1376.19 12.552C1377.15 14.984 1377.73 17.64 1377.92 20.52L1364.19 23.304C1364.07 21.704 1363.84 20.232 1363.52 18.888C1363.27 17.544 1362.79 16.392 1362.08 15.432C1361.44 14.472 1360.55 13.736 1359.39 13.224C1358.31 12.648 1356.9 12.36 1355.17 12.36C1351.2 12.36 1348.16 13.928 1346.05 17.064C1343.94 20.2 1342.43 24.456 1341.54 29.832L1339.81 40.296C1339.62 41.448 1339.43 42.6 1339.23 43.752C1339.11 44.904 1339.04 46.248 1339.04 47.784C1339.04 51.176 1339.78 53.832 1341.25 55.752C1342.72 57.672 1345.22 58.632 1348.74 58.632C1350.27 58.632 1351.68 58.344 1352.96 57.768C1354.24 57.128 1355.39 56.296 1356.42 55.272C1357.44 54.248 1358.37 53.064 1359.2 51.72C1360.03 50.312 1360.77 48.808 1361.41 47.208L1373.6 50.856C1370.98 57.128 1367.62 61.928 1363.52 65.256C1359.49 68.52 1354.24 70.152 1347.78 70.152Z" fill="#1751C3"/>
<path d="M1418.49 13.704L1409.28 69H1395.07L1404.28 13.704H1384.89L1386.81 1.99197H1439.8L1437.88 13.704H1418.49Z" fill="#1751C3"/>
</svg>
