<svg width="1252" height="412" viewBox="0 0 1252 412" fill="none" xmlns="http://www.w3.org/2000/svg">
<path d="M0.775024 169V142.693H36.325V29.881H0.775024V3.57399H107.425V29.881H71.875V142.693H107.425V169H0.775024Z" fill="#1751C3"/>
<path d="M172.507 59.032H169.9V169H139.564V3.57399H182.224L219.907 113.542H222.514V3.57399H252.85V169H210.19L172.507 59.032Z" fill="#1751C3"/>
<path d="M286.175 169V3.57399H395.906V32.725H321.725V70.645H388.085V99.796H321.725V169H286.175Z" fill="#1751C3"/>
<path d="M480.422 171.844C458.302 171.844 441.949 164.339 431.363 149.329C420.935 134.319 415.721 113.305 415.721 86.287C415.721 59.269 420.935 38.255 431.363 23.245C441.949 8.23498 458.302 0.72998 480.422 0.72998C502.542 0.72998 518.816 8.23498 529.244 23.245C539.83 38.255 545.123 59.269 545.123 86.287C545.123 113.305 539.83 134.319 529.244 149.329C518.816 164.339 502.542 171.844 480.422 171.844ZM480.422 143.167C490.534 143.167 497.486 139.454 501.278 132.028C505.228 124.444 507.203 113.937 507.203 100.507V71.83C507.203 58.558 505.228 48.209 501.278 40.783C497.486 33.199 490.534 29.407 480.422 29.407C470.31 29.407 463.279 33.199 459.329 40.783C455.537 48.209 453.641 58.558 453.641 71.83V100.744C453.641 114.016 455.537 124.444 459.329 132.028C463.279 139.454 470.31 143.167 480.422 143.167Z" fill="#1751C3"/>
<path d="M619.923 171.844C606.019 171.844 593.932 169.553 583.662 164.971C573.392 160.389 565.097 154.148 558.777 146.248L579.396 123.496C585.4 130.132 591.957 135.03 599.067 138.19C606.335 141.35 613.682 142.93 621.108 142.93C629.64 142.93 636.118 141.034 640.542 137.242C644.966 133.45 647.178 127.999 647.178 120.889C647.178 115.043 645.44 110.619 641.964 107.617C638.646 104.615 632.958 102.482 624.9 101.218L607.599 98.374C592.747 95.846 582.003 90.395 575.367 82.021C568.731 73.489 565.413 63.14 565.413 50.974C565.413 35.016 570.627 22.692 581.055 14.002C591.483 5.15398 606.098 0.72998 624.9 0.72998C637.698 0.72998 648.837 2.70498 658.317 6.65497C667.797 10.605 675.46 15.977 681.306 22.771L661.161 45.286C656.737 40.388 651.523 36.596 645.519 33.91C639.515 31.066 632.721 29.644 625.137 29.644C609.179 29.644 601.2 36.201 601.2 49.315C601.2 55.003 602.938 59.269 606.414 62.113C610.048 64.957 615.894 67.09 623.952 68.512L641.253 71.593C654.683 73.963 665.032 79.019 672.3 86.761C679.568 94.503 683.202 104.931 683.202 118.045C683.202 125.787 681.859 132.976 679.173 139.612C676.487 146.09 672.458 151.778 667.086 156.676C661.714 161.416 655.078 165.129 647.178 167.815C639.436 170.501 630.351 171.844 619.923 171.844Z" fill="#1751C3"/>
<path d="M1.01202 366V200.574H65.002C73.06 200.574 80.249 201.838 86.569 204.366C92.889 206.736 98.182 210.212 102.448 214.794C106.872 219.376 110.19 224.906 112.402 231.384C114.614 237.862 115.72 245.13 115.72 253.188C115.72 261.246 114.614 268.514 112.402 274.992C110.19 281.47 106.872 287 102.448 291.582C98.182 296.164 92.889 299.719 86.569 302.247C80.249 304.617 73.06 305.802 65.002 305.802H36.799V366H1.01202ZM36.799 277.125H55.996C64.37 277.125 70.137 275.545 73.297 272.385C76.615 269.225 78.274 264.011 78.274 256.743V249.633C78.274 242.365 76.615 237.151 73.297 233.991C70.137 230.831 64.37 229.251 55.996 229.251H36.799V277.125Z" fill="#1751C3"/>
<path d="M178.195 366H143.119V200.574H207.109C215.167 200.574 222.356 201.838 228.676 204.366C234.996 206.736 240.289 210.212 244.555 214.794C248.979 219.376 252.297 224.906 254.509 231.384C256.721 237.862 257.827 245.13 257.827 253.188C257.827 264.88 255.299 274.913 250.243 283.287C245.187 291.661 237.998 297.191 228.676 299.877L261.145 366H222.277L194.548 304.617H178.195V366ZM198.577 277.125C206.951 277.125 212.718 275.545 215.878 272.385C219.196 269.225 220.855 264.011 220.855 256.743V249.633C220.855 242.365 219.196 237.151 215.878 233.991C212.718 230.831 206.951 229.251 198.577 229.251H178.195V277.125H198.577Z" fill="#1751C3"/>
<path d="M370.31 366L359.882 326.184H314.615L304.424 366H268.4L313.193 200.574H363.437L408.23 366H370.31ZM338.315 234.939H336.419L320.303 297.507H354.431L338.315 234.939Z" fill="#1751C3"/>
<path d="M498.197 229.725V366H462.647V229.725H415.01V200.574H545.834V229.725H498.197Z" fill="#1751C3"/>
<path d="M569.205 366V339.693H604.755V226.881H569.205V200.574H675.855V226.881H640.305V339.693H675.855V366H569.205Z" fill="#1751C3"/>
<path d="M818.199 411.267H784.545C771.747 411.267 762.662 408.186 757.29 402.024C751.918 395.862 749.232 387.567 749.232 377.139V367.422C732.326 364.104 719.844 355.256 711.786 340.878C703.886 326.342 699.936 307.145 699.936 283.287C699.936 256.269 705.15 235.255 715.578 220.245C726.164 205.235 742.517 197.73 764.637 197.73C786.757 197.73 803.031 205.235 813.459 220.245C824.045 235.255 829.338 256.269 829.338 283.287C829.338 307.145 825.309 326.342 817.251 340.878C809.351 355.256 796.948 364.104 780.042 367.422V385.908H818.199V411.267ZM764.637 340.167C774.749 340.167 781.701 336.454 785.493 329.028C789.443 321.444 791.418 310.937 791.418 297.507V268.83C791.418 255.558 789.443 245.209 785.493 237.783C781.701 230.199 774.749 226.407 764.637 226.407C754.525 226.407 747.494 230.199 743.544 237.783C739.752 245.209 737.856 255.558 737.856 268.83V297.744C737.856 311.016 739.752 321.444 743.544 329.028C747.494 336.454 754.525 340.167 764.637 340.167Z" fill="#1751C3"/>
<path d="M884.23 200.574V305.328C884.23 310.542 884.388 315.361 884.704 319.785C885.178 324.051 886.126 327.685 887.548 330.687C889.128 333.689 891.419 336.059 894.421 337.797C897.423 339.377 901.531 340.167 906.745 340.167C911.959 340.167 916.067 339.377 919.069 337.797C922.071 336.059 924.283 333.689 925.705 330.687C927.285 327.685 928.233 324.051 928.549 319.785C929.023 315.361 929.26 310.542 929.26 305.328V200.574H964.81V300.588C964.81 311.964 964.02 321.918 962.44 330.45C961.018 338.982 958.174 346.092 953.908 351.78C949.642 357.468 943.717 361.734 936.133 364.578C928.549 367.422 918.753 368.844 906.745 368.844C894.737 368.844 884.941 367.422 877.357 364.578C869.773 361.734 863.848 357.468 859.582 351.78C855.316 346.092 852.393 338.982 850.813 330.45C849.391 321.918 848.68 311.964 848.68 300.588V200.574H884.23Z" fill="#1751C3"/>
<path d="M996.712 366V200.574H1102.41V229.725H1032.26V267.645H1100.04V296.796H1032.26V336.849H1102.41V366H996.712Z" fill="#1751C3"/>
<path d="M1188.35 368.844C1174.45 368.844 1162.36 366.553 1152.09 361.971C1141.82 357.389 1133.53 351.148 1127.21 343.248L1147.83 320.496C1153.83 327.132 1160.39 332.03 1167.5 335.19C1174.76 338.35 1182.11 339.93 1189.54 339.93C1198.07 339.93 1204.55 338.034 1208.97 334.242C1213.4 330.45 1215.61 324.999 1215.61 317.889C1215.61 312.043 1213.87 307.619 1210.39 304.617C1207.08 301.615 1201.39 299.482 1193.33 298.218L1176.03 295.374C1161.18 292.846 1150.43 287.395 1143.8 279.021C1137.16 270.489 1133.84 260.14 1133.84 247.974C1133.84 232.016 1139.06 219.692 1149.48 211.002C1159.91 202.154 1174.53 197.73 1193.33 197.73C1206.13 197.73 1217.27 199.705 1226.75 203.655C1236.23 207.605 1243.89 212.977 1249.74 219.771L1229.59 242.286C1225.17 237.388 1219.95 233.596 1213.95 230.91C1207.94 228.066 1201.15 226.644 1193.57 226.644C1177.61 226.644 1169.63 233.201 1169.63 246.315C1169.63 252.003 1171.37 256.269 1174.84 259.113C1178.48 261.957 1184.32 264.09 1192.38 265.512L1209.68 268.593C1223.11 270.963 1233.46 276.019 1240.73 283.761C1248 291.503 1251.63 301.931 1251.63 315.045C1251.63 322.787 1250.29 329.976 1247.6 336.612C1244.92 343.09 1240.89 348.778 1235.52 353.676C1230.14 358.416 1223.51 362.129 1215.61 364.815C1207.87 367.501 1198.78 368.844 1188.35 368.844Z" fill="#1751C3"/>
</svg>
