<svg width="496" height="312" viewBox="0 0 496 312" fill="none" xmlns="http://www.w3.org/2000/svg">
<path fill-rule="evenodd" clip-rule="evenodd" d="M280.988 301.303C416.71 270.49 511.965 180.457 493.747 100.209C475.528 19.9607 350.735 -20.115 215.012 10.6975C79.2904 41.51 -15.9651 131.543 2.25344 211.791C20.4719 292.039 145.265 332.115 280.988 301.303ZM192.447 127.627C193.841 128.853 195.63 129.218 197.814 128.722C198.657 128.531 199.373 128.253 199.963 127.889C200.569 127.522 201.06 127.083 201.436 126.571C201.808 126.043 202.077 125.457 202.243 124.812C202.424 124.164 202.519 123.462 202.527 122.705L199.07 122.653C199.075 123.472 198.948 124.174 198.687 124.758C198.441 125.339 197.913 125.722 197.101 125.906C196.149 126.122 195.387 125.909 194.815 125.268C194.255 124.608 193.826 123.622 193.529 122.312L192.881 119.456C192.583 118.146 192.546 117.079 192.77 116.257C193.005 115.416 193.599 114.888 194.551 114.672C194.956 114.58 195.316 114.572 195.628 114.649C195.953 114.706 196.236 114.831 196.476 115.022C196.732 115.21 196.96 115.454 197.159 115.753C197.358 116.052 197.549 116.386 197.731 116.755L200.827 115.216C200.492 114.537 200.104 113.944 199.66 113.438C199.233 112.928 198.739 112.523 198.179 112.224C197.619 111.924 196.986 111.74 196.281 111.67C195.588 111.581 194.821 111.633 193.978 111.824C191.794 112.32 190.339 113.429 189.615 115.152C188.902 116.856 188.851 119.05 189.46 121.734C190.069 124.418 191.065 126.382 192.447 127.627ZM150.407 139.189L146.699 122.853L150.233 122.05L153.288 135.508L160.309 133.914L160.963 136.793L150.407 139.189ZM172.469 134.181L170.546 130.482L166.076 131.497L165.962 135.658L162.405 136.465L163.119 119.125L168.081 117.998L176.213 133.33L172.469 134.181ZM166.371 121.955L166.184 121.998L165.995 128.538L169.365 127.773L166.371 121.955ZM211.473 125.621C209.289 126.117 207.506 125.742 206.124 124.497C204.758 123.249 203.772 121.291 203.166 118.622C202.56 115.954 202.604 113.762 203.297 112.046C204.006 110.327 205.453 109.219 207.637 108.723C209.821 108.227 211.597 108.603 212.963 109.852C214.345 111.097 215.339 113.053 215.945 115.721C216.55 118.389 216.499 120.583 215.79 122.303C215.097 124.019 213.658 125.125 211.473 125.621ZM210.83 122.789C211.829 122.562 212.432 122.04 212.64 121.221C212.86 120.384 212.82 119.302 212.519 117.976L211.876 115.144C211.578 113.833 211.151 112.855 210.595 112.211C210.05 111.547 209.279 111.328 208.28 111.555C207.281 111.781 206.672 112.314 206.452 113.151C206.244 113.969 206.289 115.034 206.586 116.345L207.235 119.2C207.532 120.511 207.953 121.498 208.498 122.162C209.054 122.807 209.832 123.016 210.83 122.789ZM220.514 121.255C221.908 122.481 223.697 122.846 225.881 122.35C226.724 122.159 227.44 121.881 228.03 121.517C228.636 121.15 229.127 120.711 229.503 120.199C229.875 119.671 230.144 119.085 230.31 118.44C230.491 117.792 230.586 117.09 230.594 116.333L227.137 116.281C227.142 117.1 227.015 117.802 226.754 118.386C226.508 118.967 225.98 119.35 225.168 119.534C224.216 119.75 223.454 119.537 222.882 118.896C222.322 118.236 221.893 117.25 221.596 115.94L220.948 113.084C220.65 111.774 220.613 110.707 220.837 109.885C221.072 109.044 221.666 108.516 222.618 108.3C223.023 108.208 223.383 108.2 223.695 108.277C224.02 108.334 224.303 108.459 224.543 108.65C224.799 108.838 225.027 109.082 225.226 109.381C225.425 109.68 225.616 110.015 225.798 110.383L228.894 108.844C228.559 108.165 228.171 107.572 227.727 107.066C227.3 106.556 226.806 106.151 226.246 105.852C225.686 105.552 225.053 105.368 224.348 105.298C223.655 105.209 222.888 105.261 222.045 105.452C219.861 105.948 218.406 107.057 217.682 108.78C216.969 110.484 216.918 112.678 217.527 115.362C218.136 118.046 219.132 120.01 220.514 121.255ZM239.915 119.164C237.73 119.66 235.941 119.295 234.547 118.069C233.165 116.824 232.17 114.86 231.561 112.176C230.951 109.492 231.003 107.298 231.715 105.594C232.44 103.871 233.894 102.762 236.079 102.266C236.921 102.075 237.689 102.023 238.382 102.112C239.087 102.182 239.719 102.366 240.279 102.666C240.84 102.965 241.333 103.37 241.761 103.88C242.204 104.386 242.593 104.979 242.928 105.658L239.832 107.197C239.649 106.829 239.459 106.494 239.259 106.195C239.06 105.896 238.833 105.652 238.577 105.464C238.336 105.273 238.054 105.148 237.729 105.091C237.416 105.014 237.057 105.022 236.651 105.114C235.7 105.33 235.106 105.858 234.87 106.699C234.647 107.521 234.684 108.588 234.981 109.898L235.629 112.754C235.927 114.064 236.356 115.05 236.916 115.71C237.488 116.351 238.25 116.564 239.202 116.348C240.013 116.164 240.542 115.781 240.787 115.2C241.048 114.616 241.176 113.914 241.171 113.095L244.628 113.147C244.619 113.904 244.524 114.606 244.343 115.254C244.178 115.899 243.909 116.485 243.537 117.013C243.161 117.525 242.67 117.964 242.064 118.331C241.474 118.695 240.757 118.973 239.915 119.164ZM247.654 114.38L248.244 116.978L258.776 114.587L258.186 111.989L254.676 112.786L252.147 101.645L255.657 100.848L255.067 98.2502L244.535 100.641L245.125 103.239L248.636 102.442L251.165 113.583L247.654 114.38ZM262.738 102.268L262.48 102.326L264.946 113.186L261.95 113.866L258.241 97.5297L262.454 96.5733L268.641 106.588L268.898 106.53L266.433 95.67L269.429 94.9899L273.137 111.326L268.925 112.283L262.738 102.268ZM283.158 91.873L272.719 94.2428L276.428 110.579L286.867 108.209L286.213 105.331L279.285 106.903L278.387 102.948L285.081 101.428L284.427 98.5496L277.734 100.069L276.884 96.3245L283.811 94.7517L283.158 91.873ZM287.034 90.993L290.568 90.1907L293.623 103.648L300.644 102.054L301.298 104.933L290.743 107.329L287.034 90.993ZM304.601 87.0047L301.067 87.807L304.776 104.143L315.332 101.747L314.678 98.8682L307.657 100.462L304.601 87.0047ZM314.82 84.6848L325.258 82.315L325.912 85.1938L318.984 86.7666L319.834 90.5113L326.528 88.9916L327.182 91.8704L320.488 93.39L321.386 97.3454L328.314 95.7726L328.967 98.6513L318.529 101.021L314.82 84.6848ZM198.111 156.046L201.575 155.26L200.199 149.198L201.814 148.831L205.928 154.271L209.767 153.4L205.078 147.598C205.938 147.124 206.524 146.417 206.836 145.476C207.147 144.536 207.172 143.489 206.91 142.334C206.729 141.538 206.457 140.845 206.093 140.255C205.729 139.665 205.278 139.193 204.738 138.84C204.214 138.483 203.614 138.259 202.936 138.166C202.256 138.058 201.517 138.095 200.722 138.275L194.402 139.71L198.111 156.046ZM203.197 145.17C202.956 145.553 202.422 145.838 201.595 146.026L199.582 146.483L198.509 141.755L200.522 141.298C201.349 141.111 201.954 141.137 202.337 141.379C202.735 141.616 203.016 142.094 203.179 142.812L203.338 143.514C203.501 144.232 203.454 144.784 203.197 145.17ZM208.529 136.503L218.968 134.133L219.621 137.012L212.694 138.584L213.544 142.329L220.238 140.809L220.891 143.688L214.197 145.208L215.095 149.163L222.023 147.59L222.677 150.469L212.238 152.839L208.529 136.503ZM224.81 132.807L220.901 133.694L228.94 149.047L233.902 147.921L234.523 130.602L230.801 131.446L230.745 140.196L230.83 145.123L230.643 145.166L228.615 140.679L224.81 132.807ZM240.188 146.494L239.598 143.896L243.109 143.099L240.58 131.958L237.069 132.755L236.48 130.157L247.011 127.766L247.601 130.364L244.091 131.161L246.62 142.302L250.13 141.505L250.72 144.103L240.188 146.494ZM261.068 124.575L250.63 126.945L254.339 143.281L264.777 140.911L264.124 138.032L257.196 139.605L256.298 135.65L262.992 134.13L262.338 131.252L255.644 132.771L254.794 129.026L261.722 127.454L261.068 124.575ZM268.715 128.598L268.458 128.656L270.923 139.516L267.928 140.196L264.219 123.86L268.432 122.903L274.618 132.918L274.876 132.86L272.41 122L275.406 121.32L279.115 137.656L274.902 138.613L268.715 128.598ZM289.31 135.342L286.255 121.884L290.959 120.816L290.306 117.937L277.386 120.87L278.04 123.749L282.744 122.681L285.799 136.139L289.31 135.342ZM157.042 224.302L156.072 207.344L166.51 204.975L166.69 207.936L159.669 209.53L159.898 213.465L166.591 211.946L166.772 214.907L160.054 216.432L160.302 220.56L167.3 218.971L167.481 221.933L157.042 224.302ZM173.246 209.106L173.012 209.159L173.674 220.527L170.654 221.212L169.661 204.259L173.827 203.314L178.209 213.837L178.443 213.783L177.782 202.416L180.801 201.73L181.795 218.683L177.629 219.629L173.246 209.106ZM204.589 213.803C203.232 214.111 201.965 214.169 200.79 213.977C199.629 213.781 198.709 213.342 198.029 212.659L199.707 209.965C200.332 210.479 201.047 210.809 201.851 210.955C202.652 211.085 203.419 211.067 204.152 210.9C205.041 210.698 205.664 210.335 206.021 209.811C206.39 209.268 206.49 208.622 206.32 207.873C206.196 207.327 205.949 206.965 205.58 206.786C205.224 206.588 204.7 206.485 204.009 206.478L202.309 206.47C201.063 206.474 200.086 206.179 199.377 205.585C198.68 204.972 198.216 204.159 197.986 203.145C197.802 202.333 197.776 201.568 197.908 200.849C198.055 200.126 198.349 199.469 198.789 198.877C199.229 198.285 199.81 197.776 200.534 197.349C201.257 196.922 202.103 196.599 203.07 196.379C204.24 196.114 205.347 196.076 206.391 196.265C207.435 196.455 208.273 196.855 208.904 197.467L207.106 200.065C206.634 199.647 206.095 199.368 205.489 199.226C204.894 199.066 204.246 199.066 203.544 199.225C202.686 199.42 202.09 199.76 201.758 200.246C201.425 200.731 201.333 201.302 201.482 201.957C201.588 202.425 201.81 202.752 202.147 202.938C202.501 203.121 203.065 203.222 203.841 203.243L205.476 203.29C207.885 203.35 209.338 204.473 209.833 206.657C210.025 207.5 210.052 208.306 209.915 209.075C209.79 209.825 209.503 210.514 209.055 211.141C208.606 211.767 208.008 212.313 207.261 212.778C206.51 213.228 205.619 213.569 204.589 213.803ZM221.649 209.635L220.353 205.77L215.766 206.811L215.049 211.133L211.421 211.957L214.897 193.99L219.719 192.895L225.206 208.827L221.649 209.635ZM217.681 196.926L217.47 196.974L216.298 203.737L219.575 202.993L217.681 196.926ZM229.878 207.767L224.601 191.787L228.299 190.947L230.726 199.034L232.025 203.785L232.236 203.737L232.972 198.524L234.29 189.587L238.082 188.726L234.816 206.646L229.878 207.767ZM246.947 204.187C245.964 204.41 245.082 204.463 244.301 204.345C243.519 204.227 242.834 203.956 242.246 203.532C241.657 203.107 241.167 202.538 240.775 201.823C240.383 201.108 240.079 200.274 239.863 199.323C239.548 197.934 239.375 196.562 239.347 195.207C239.334 193.848 239.512 192.61 239.882 191.492C240.248 190.359 240.824 189.391 241.61 188.59C242.408 187.768 243.454 187.211 244.749 186.917C245.732 186.694 246.615 186.641 247.396 186.759C248.178 186.877 248.863 187.148 249.451 187.572C250.04 187.997 250.53 188.566 250.922 189.281C251.314 189.996 251.618 190.829 251.834 191.781C252.149 193.17 252.314 194.544 252.327 195.902C252.356 197.258 252.187 198.502 251.821 199.635C251.451 200.753 250.867 201.722 250.069 202.543C249.283 203.345 248.243 203.893 246.947 204.187ZM246.31 201.378C247.293 201.155 247.927 200.626 248.213 199.79C248.515 198.95 248.623 197.834 248.536 196.443L248.367 193.528C248.333 192.945 248.252 192.373 248.125 191.811C247.941 191 247.625 190.407 247.18 190.032C246.734 189.658 246.136 189.555 245.387 189.725C244.404 189.949 243.762 190.48 243.46 191.32C243.174 192.156 243.074 193.269 243.161 194.661L243.33 197.576C243.364 198.159 243.445 198.731 243.572 199.293C243.756 200.104 244.071 200.697 244.517 201.072C244.963 201.446 245.561 201.548 246.31 201.378ZM254.973 199.362L258.507 198.56L257.84 186.948L254.306 187.75L254.142 185.08L264.674 182.689L264.838 185.359L261.304 186.161L261.971 197.774L265.505 196.971L265.668 199.641L255.136 202.032L254.973 199.362ZM272.657 198.055L269.24 198.831L268.27 181.873L274.168 180.534C274.885 180.371 275.542 180.336 276.138 180.431C276.745 180.506 277.281 180.696 277.744 181.001C278.203 181.291 278.587 181.68 278.895 182.168C279.218 182.652 279.454 183.222 279.603 183.877C279.932 185.328 279.854 186.609 279.368 187.721C278.897 188.828 278.093 189.692 276.953 190.311L280.638 196.243L276.987 197.072L273.803 191.396L272.305 191.736L272.657 198.055ZM274.006 188.495C274.849 188.304 275.425 188.025 275.736 187.659C276.047 187.293 276.179 186.755 276.132 186.043L276.098 185.46C276.081 185.169 276.046 184.906 275.993 184.672C275.869 184.126 275.617 183.773 275.236 183.614C274.852 183.438 274.371 183.416 273.793 183.547L271.851 183.988L272.134 188.92L274.006 188.495ZM297.354 192.448L296.383 175.49L302.281 174.151C302.999 173.988 303.656 173.954 304.252 174.048C304.859 174.124 305.395 174.314 305.858 174.619C306.321 174.924 306.706 175.32 307.014 175.808C307.337 176.293 307.57 176.847 307.711 177.471C307.924 178.407 307.975 179.282 307.864 180.095C307.765 180.888 307.517 181.601 307.119 182.233C306.736 182.861 306.218 183.397 305.564 183.841C304.91 184.285 304.138 184.607 303.249 184.809L300.464 185.442L300.818 191.662L297.354 192.448ZM300.294 182.527L302.12 182.112C302.916 181.932 303.475 181.649 303.798 181.264C304.121 180.879 304.265 180.321 304.23 179.591L304.188 178.862C304.186 178.78 304.172 178.685 304.147 178.576C304.138 178.463 304.119 178.344 304.091 178.219C303.971 177.689 303.737 177.348 303.391 177.197C303.057 177.027 302.539 177.021 301.837 177.181L300.012 177.595L300.294 182.527ZM311.715 189.188L310.721 172.235L314.185 171.449L314.999 185.44L322.067 183.835L322.247 186.797L311.715 189.188ZM327.282 168.475L327.901 179.114C327.919 179.553 327.944 179.917 327.976 180.205C328.025 180.489 328.068 180.717 328.107 180.889C328.242 181.481 328.485 181.902 328.837 182.15C329.204 182.395 329.746 182.436 330.464 182.273C330.979 182.156 331.383 181.983 331.675 181.752C331.964 181.506 332.168 181.214 332.288 180.875C332.423 180.532 332.498 180.138 332.511 179.692C332.525 179.246 332.518 178.747 332.492 178.195L331.87 167.434L335.31 166.653L335.912 177C335.973 178.135 335.964 179.146 335.887 180.033C335.825 180.917 335.616 181.694 335.26 182.366C334.919 183.034 334.398 183.595 333.698 184.049C333.012 184.5 332.085 184.858 330.915 185.124C329.947 185.344 329.105 185.428 328.388 185.378C327.683 185.308 327.085 185.132 326.595 184.85C326.116 184.548 325.731 184.152 325.439 183.66C325.143 183.153 324.919 182.564 324.767 181.893C324.675 181.487 324.602 181.061 324.55 180.613C324.494 180.15 324.448 179.66 324.413 179.143L323.842 169.256L327.282 168.475ZM344.925 181.943C343.567 182.252 342.301 182.31 341.125 182.117C339.965 181.921 339.045 181.482 338.365 180.799L340.042 178.105C340.667 178.62 341.382 178.95 342.186 179.095C342.987 179.225 343.754 179.207 344.487 179.04C345.376 178.838 346 178.475 346.356 177.951C346.725 177.408 346.825 176.762 346.655 176.013C346.531 175.467 346.284 175.105 345.916 174.926C345.559 174.728 345.035 174.625 344.344 174.618L342.645 174.61C341.399 174.614 340.421 174.319 339.712 173.726C339.015 173.113 338.551 172.299 338.321 171.285C338.137 170.474 338.111 169.708 338.243 168.989C338.391 168.267 338.684 167.609 339.124 167.017C339.564 166.425 340.146 165.916 340.869 165.489C341.593 165.062 342.438 164.739 343.405 164.519C344.576 164.254 345.683 164.216 346.727 164.405C347.77 164.595 348.608 164.995 349.239 165.607L347.442 168.205C346.969 167.788 346.43 167.508 345.824 167.367C345.23 167.206 344.581 167.206 343.879 167.365C343.021 167.56 342.426 167.9 342.093 168.386C341.76 168.872 341.668 169.442 341.817 170.098C341.923 170.566 342.145 170.893 342.483 171.079C342.836 171.261 343.4 171.362 344.176 171.383L345.811 171.43C348.22 171.49 349.673 172.613 350.169 174.797C350.36 175.64 350.387 176.446 350.25 177.215C350.125 177.965 349.838 178.654 349.39 179.281C348.942 179.908 348.344 180.454 347.596 180.919C346.845 181.368 345.954 181.71 344.925 181.943ZM161.618 195.576L343.003 154.397C353.236 152.074 363.415 158.486 365.738 168.719C368.061 178.952 361.649 189.131 351.416 191.454L170.031 232.633C159.798 234.957 149.619 228.544 147.296 218.311C144.973 208.078 151.385 197.9 161.618 195.576ZM143.396 219.197C140.583 206.81 148.345 194.488 160.733 191.676L342.117 150.497C354.504 147.684 366.826 155.447 369.638 167.834C372.451 180.221 364.689 192.543 352.301 195.355L170.917 236.534C158.53 239.346 146.208 231.584 143.396 219.197Z" fill="black"/>
</svg>
