<svg width="1244" height="172" viewBox="0 0 1244 172" fill="none" xmlns="http://www.w3.org/2000/svg">
<path d="M0.0120239 169V3.57399H64.002C72.06 3.57399 79.249 4.83798 85.569 7.36598C91.889 9.73598 97.182 13.212 101.448 17.794C105.872 22.376 109.19 27.906 111.402 34.384C113.614 40.862 114.72 48.13 114.72 56.188C114.72 64.246 113.614 71.514 111.402 77.992C109.19 84.47 105.872 90 101.448 94.582C97.182 99.164 91.889 102.719 85.569 105.247C79.249 107.617 72.06 108.802 64.002 108.802H35.799V169H0.0120239ZM35.799 80.125H54.996C63.37 80.125 69.137 78.545 72.297 75.385C75.615 72.225 77.274 67.011 77.274 59.743V52.633C77.274 45.365 75.615 40.151 72.297 36.991C69.137 33.831 63.37 32.251 54.996 32.251H35.799V80.125Z" fill="#1751C3"/>
<path d="M177.195 169H142.119V3.57399H206.109C214.167 3.57399 221.356 4.83798 227.676 7.36598C233.996 9.73598 239.289 13.212 243.555 17.794C247.979 22.376 251.297 27.906 253.509 34.384C255.721 40.862 256.827 48.13 256.827 56.188C256.827 67.88 254.299 77.913 249.243 86.287C244.187 94.661 236.998 100.191 227.676 102.877L260.145 169H221.277L193.548 107.617H177.195V169ZM197.577 80.125C205.951 80.125 211.718 78.545 214.878 75.385C218.196 72.225 219.855 67.011 219.855 59.743V52.633C219.855 45.365 218.196 40.151 214.878 36.991C211.718 33.831 205.951 32.251 197.577 32.251H177.195V80.125H197.577Z" fill="#1751C3"/>
<path d="M337.315 171.844C315.195 171.844 298.842 164.339 288.256 149.329C277.828 134.319 272.614 113.305 272.614 86.287C272.614 59.269 277.828 38.255 288.256 23.245C298.842 8.23498 315.195 0.72998 337.315 0.72998C359.435 0.72998 375.709 8.23498 386.137 23.245C396.723 38.255 402.016 59.269 402.016 86.287C402.016 113.305 396.723 134.319 386.137 149.329C375.709 164.339 359.435 171.844 337.315 171.844ZM337.315 143.167C347.427 143.167 354.379 139.454 358.171 132.028C362.121 124.444 364.096 113.937 364.096 100.507V71.83C364.096 58.558 362.121 48.209 358.171 40.783C354.379 33.199 347.427 29.407 337.315 29.407C327.203 29.407 320.172 33.199 316.222 40.783C312.43 48.209 310.534 58.558 310.534 71.83V100.744C310.534 114.016 312.43 124.444 316.222 132.028C320.172 139.454 327.203 143.167 337.315 143.167Z" fill="#1751C3"/>
<path d="M505.729 145.537H503.596C502.174 149.013 500.436 152.331 498.382 155.491C496.328 158.651 493.8 161.495 490.798 164.023C487.796 166.393 484.241 168.289 480.133 169.711C476.183 171.133 471.68 171.844 466.624 171.844C458.566 171.844 451.377 169.948 445.057 166.156C438.895 162.364 433.681 156.834 429.415 149.566C425.149 142.298 421.91 133.45 419.698 123.022C417.644 112.594 416.617 100.823 416.617 87.709C416.617 59.585 421.752 38.097 432.022 23.245C442.292 8.23498 458.171 0.72998 479.659 0.72998C488.191 0.72998 495.696 1.91498 502.174 4.28498C508.652 6.49698 514.182 9.73598 518.764 14.002C523.504 18.11 527.375 23.087 530.377 28.933C533.379 34.779 535.749 41.257 537.487 48.367L504.307 56.425C503.359 52.949 502.253 49.631 500.989 46.471C499.883 43.153 498.382 40.23 496.486 37.702C494.59 35.174 492.22 33.199 489.376 31.777C486.532 30.197 483.056 29.407 478.948 29.407C469.942 29.407 463.543 33.12 459.751 40.546C456.117 47.972 454.3 58.4 454.3 71.83V98.848C454.3 112.278 456.275 123.022 460.225 131.08C464.333 139.138 471.522 143.167 481.792 143.167C489.85 143.167 495.854 140.797 499.804 136.057C503.754 131.317 505.729 125.234 505.729 117.808V105.721H477.526V80.599H537.487V169H505.729V145.537Z" fill="#1751C3"/>
<path d="M603.518 169H568.442V3.57399H632.432C640.49 3.57399 647.679 4.83798 653.999 7.36598C660.319 9.73598 665.612 13.212 669.878 17.794C674.302 22.376 677.62 27.906 679.832 34.384C682.044 40.862 683.15 48.13 683.15 56.188C683.15 67.88 680.622 77.913 675.566 86.287C670.51 94.661 663.321 100.191 653.999 102.877L686.468 169H647.6L619.871 107.617H603.518V169ZM623.9 80.125C632.274 80.125 638.041 78.545 641.201 75.385C644.519 72.225 646.178 67.011 646.178 59.743V52.633C646.178 45.365 644.519 40.151 641.201 36.991C638.041 33.831 632.274 32.251 623.9 32.251H603.518V80.125H623.9Z" fill="#1751C3"/>
<path d="M795.632 169L785.204 129.184H739.937L729.746 169H693.722L738.515 3.57399H788.759L833.552 169H795.632ZM763.637 37.939H761.741L745.625 100.507H779.753L763.637 37.939Z" fill="#1751C3"/>
<path d="M936.792 95.293L938.688 49.078H936.555L905.745 134.161L874.935 49.078H872.802L874.698 95.293V169H843.888V3.57399H885.837L906.219 59.269H908.115L928.497 3.57399H967.602V169H936.792V95.293Z" fill="#1751C3"/>
<path d="M1078.9 95.293L1080.79 49.078H1078.66L1047.85 134.161L1017.04 49.078H1014.91L1016.8 95.293V169H985.995V3.57399H1027.94L1048.33 59.269H1050.22L1070.6 3.57399H1109.71V169H1078.9V95.293Z" fill="#1751C3"/>
<path d="M1137.82 169V3.57399H1243.52V32.725H1173.37V70.645H1241.15V99.796H1173.37V139.849H1243.52V169H1137.82Z" fill="#1751C3"/>
</svg>
