<svg width="578" height="481" viewBox="0 0 578 481" fill="none" xmlns="http://www.w3.org/2000/svg">
<path fill-rule="evenodd" clip-rule="evenodd" d="M471.966 480.351L577.65 211.368L39.6842 0L-66 268.983L471.966 480.351ZM204.087 181.262C202.002 180.442 200.728 179.134 200.266 177.336C199.824 175.53 200.106 173.345 201.112 170.784C202.119 168.223 203.396 166.438 204.943 165.43C206.512 164.413 208.339 164.315 210.423 165.134C211.228 165.45 211.891 165.839 212.414 166.303C212.957 166.757 213.377 167.265 213.671 167.828C213.966 168.391 214.146 169.003 214.213 169.665C214.294 170.333 214.282 171.042 214.177 171.791L210.751 171.322C210.808 170.915 210.838 170.531 210.842 170.172C210.846 169.812 210.795 169.483 210.689 169.183C210.598 168.89 210.435 168.628 210.198 168.397C209.983 168.158 209.682 167.962 209.295 167.81C208.386 167.453 207.598 167.556 206.93 168.119C206.283 168.673 205.713 169.575 205.222 170.826L204.151 173.551C203.659 174.802 203.459 175.858 203.551 176.719C203.663 177.571 204.173 178.175 205.082 178.532C205.856 178.837 206.508 178.818 207.038 178.476C207.583 178.14 208.083 177.632 208.539 176.951L211.368 178.939C210.935 179.56 210.462 180.087 209.947 180.521C209.448 180.961 208.896 181.294 208.291 181.521C207.692 181.733 207.039 181.82 206.332 181.783C205.639 181.751 204.891 181.578 204.087 181.262ZM221.757 180.365L217.826 178.821L215.263 185.343L211.89 184.018L218.016 168.426L221.389 169.752L218.905 176.073L222.837 177.618L225.32 171.296L228.693 172.621L222.567 188.213L219.194 186.888L221.757 180.365ZM225.619 189.412L228.925 190.711L231.198 184.926L232.739 185.531L233.08 192.343L236.743 193.783L236.131 186.348C237.11 186.44 237.992 186.185 238.779 185.583C239.565 184.981 240.175 184.129 240.608 183.027C240.906 182.268 241.071 181.542 241.103 180.849C241.134 180.157 241.026 179.513 240.779 178.917C240.546 178.327 240.176 177.804 239.668 177.346C239.166 176.874 238.536 176.488 237.776 176.19L231.745 173.82L225.619 189.412ZM235.943 183.283C235.528 183.464 234.926 183.399 234.137 183.089L232.216 182.334L233.989 177.822L235.91 178.577C236.699 178.887 237.184 179.25 237.365 179.664C237.561 180.085 237.524 180.638 237.255 181.323L236.992 181.993C236.722 182.678 236.373 183.108 235.943 183.283ZM238.99 194.666L239.965 192.186L243.315 193.503L247.493 182.87L244.142 181.554L245.116 179.074L255.168 183.024L254.194 185.503L250.844 184.187L246.666 194.819L250.017 196.136L249.042 198.615L238.99 194.666ZM253.896 200.084C254.694 200.896 255.749 201.56 257.059 202.075C258.042 202.461 258.948 202.671 259.777 202.704C260.621 202.744 261.384 202.639 262.066 202.391C262.754 202.129 263.344 201.742 263.837 201.231C264.336 200.705 264.729 200.077 265.016 199.347C265.501 198.111 265.545 196.994 265.147 195.995C264.748 194.996 263.96 194.136 262.782 193.416L261.266 192.485C260.559 192.052 260.087 191.635 259.85 191.232C259.627 190.835 259.621 190.369 259.832 189.833C260.318 188.597 261.313 188.274 262.817 188.865C263.531 189.146 264.119 189.532 264.58 190.022C265.046 190.497 265.397 191.048 265.633 191.673L268.365 190.297C268.066 189.44 267.542 188.65 266.795 187.927C266.048 187.204 265.071 186.605 263.865 186.131C262.093 185.435 260.552 185.311 259.241 185.758C257.936 186.191 256.989 187.16 256.398 188.664C255.947 189.81 255.877 190.909 256.186 191.959C256.501 192.994 257.312 193.905 258.618 194.694L260.144 195.602C260.856 196.02 261.314 196.431 261.515 196.837C261.732 197.249 261.732 197.73 261.515 198.281C261.252 198.951 260.841 199.383 260.284 199.577C259.727 199.77 259.046 199.709 258.242 199.393C257.542 199.118 256.908 198.697 256.34 198.13C255.787 197.569 255.35 196.865 255.03 196.017L252.244 197.398C252.547 198.376 253.098 199.272 253.896 200.084ZM277.526 194.98L272.48 207.824L269.129 206.507L274.175 193.663L269.685 191.899L270.765 189.152L283.095 193.996L282.016 196.744L277.526 194.98ZM280.146 207.974L279.172 210.453L289.224 214.403L290.198 211.923L286.848 210.607L291.025 199.974L294.376 201.291L295.35 198.811L285.298 194.862L284.324 197.341L287.675 198.658L283.497 209.29L280.146 207.974ZM299.431 206.448L299.185 206.352L295.112 216.716L292.253 215.593L298.379 200.001L302.4 201.581L301.879 213.341L302.125 213.438L306.197 203.073L309.057 204.196L302.931 219.788L298.91 218.208L299.431 206.448ZM312.198 205.43L306.072 221.022L316.034 224.937L317.114 222.189L310.502 219.591L311.985 215.816L318.374 218.326L319.453 215.579L313.064 213.069L314.469 209.495L321.081 212.092L322.16 209.345L312.198 205.43ZM138.82 230.306L147.559 215.741L157.522 219.656L156.004 222.206L149.303 219.572L147.278 222.954L153.667 225.464L152.149 228.014L145.738 225.495L143.621 229.047L150.3 231.671L148.782 234.221L138.82 230.306ZM160.766 226.861L160.543 226.774L154.693 236.543L151.811 235.411L160.529 220.837L164.505 222.4L162.207 233.565L162.43 233.652L168.28 223.883L171.161 225.015L162.444 239.589L158.468 238.026L160.766 226.861ZM180.794 246.386C181.658 247.207 182.738 247.872 184.033 248.381C185.016 248.767 185.945 248.986 186.818 249.037C187.698 249.073 188.5 248.958 189.223 248.692C189.946 248.427 190.571 248.019 191.096 247.469C191.642 246.91 192.074 246.228 192.39 245.424C193.209 243.339 192.639 241.594 190.682 240.189L189.357 239.23C188.727 238.776 188.317 238.375 188.128 238.025C187.954 237.682 187.954 237.286 188.13 236.84C188.376 236.214 188.773 235.794 189.321 235.58C189.869 235.366 190.553 235.419 191.372 235.741C192.042 236.005 192.578 236.37 192.979 236.837C193.401 237.295 193.689 237.829 193.844 238.44L196.792 237.304C196.615 236.443 196.148 235.641 195.391 234.897C194.635 234.153 193.699 233.561 192.582 233.122C191.658 232.759 190.778 232.551 189.939 232.497C189.101 232.442 188.334 232.536 187.637 232.778C186.94 233.02 186.328 233.398 185.799 233.912C185.285 234.433 184.876 235.08 184.572 235.854C184.191 236.822 184.117 237.756 184.348 238.654C184.6 239.544 185.242 240.338 186.275 241.036L187.676 241.999C188.243 242.394 188.618 242.773 188.801 243.137C189.005 243.493 189.005 243.931 188.8 244.452C188.519 245.167 188.074 245.645 187.463 245.887C186.873 246.119 186.154 246.068 185.305 245.735C184.605 245.46 183.961 245.043 183.372 244.485C182.789 243.913 182.384 243.238 182.156 242.46L179.254 243.744C179.432 244.691 179.946 245.571 180.794 246.386ZM200.481 254.534L201.585 250.61L197.206 248.89L194.182 252.059L190.72 250.699L203.703 237.802L208.305 239.61L203.876 255.868L200.481 254.534ZM204.352 241.795L204.151 241.716L199.377 246.648L202.504 247.877L204.352 241.795ZM212.965 241.441L208.335 257.62L213.048 259.472L225.831 246.496L222.213 245.074L216.094 251.721L212.552 255.616L212.351 255.537L213.95 250.878L216.494 242.827L212.965 241.441ZM224.46 264.266C223.522 263.897 222.763 263.444 222.184 262.907C221.604 262.37 221.19 261.76 220.942 261.078C220.695 260.397 220.61 259.65 220.688 258.838C220.766 258.027 220.984 257.167 221.341 256.258C221.862 254.933 222.491 253.702 223.23 252.565C223.984 251.435 224.828 250.511 225.762 249.796C226.703 249.065 227.723 248.589 228.824 248.368C229.946 248.139 231.125 248.267 232.361 248.752C233.299 249.121 234.058 249.574 234.638 250.111C235.218 250.648 235.631 251.258 235.879 251.94C236.127 252.622 236.212 253.368 236.133 254.18C236.055 254.992 235.838 255.852 235.481 256.76C234.96 258.085 234.323 259.313 233.569 260.444C232.83 261.581 231.991 262.514 231.05 263.245C230.116 263.961 229.088 264.434 227.966 264.663C226.865 264.884 225.696 264.751 224.46 264.266ZM225.514 261.585C226.452 261.954 227.274 261.873 227.981 261.343C228.703 260.818 229.42 259.957 230.131 258.758L231.631 256.253C231.931 255.752 232.187 255.234 232.397 254.698C232.702 253.923 232.775 253.256 232.617 252.695C232.459 252.134 232.023 251.714 231.308 251.433C230.37 251.064 229.54 251.142 228.818 251.667C228.111 252.197 227.402 253.061 226.69 254.26L225.19 256.765C224.89 257.266 224.635 257.785 224.424 258.321C224.12 259.095 224.047 259.762 224.205 260.323C224.363 260.884 224.799 261.304 225.514 261.585ZM233.81 264.793L232.442 267.092L242.494 271.042L243.862 268.743L240.489 267.418L246.471 257.442L249.844 258.768L251.212 256.469L241.16 252.519L239.792 254.818L243.165 256.143L237.183 266.119L233.81 264.793ZM249.164 273.663L245.903 272.382L254.643 257.817L260.272 260.029C260.957 260.298 261.519 260.639 261.958 261.052C262.418 261.457 262.754 261.915 262.965 262.428C263.182 262.926 263.28 263.463 263.26 264.039C263.255 264.622 263.129 265.226 262.883 265.851C262.339 267.236 261.554 268.251 260.527 268.896C259.514 269.547 258.363 269.808 257.073 269.679L256.781 276.656L253.297 275.287L253.859 268.803L252.429 268.241L249.164 273.663ZM255.659 266.519C256.463 266.835 257.096 266.929 257.559 266.802C258.022 266.674 258.434 266.303 258.796 265.689L259.096 265.188C259.246 264.937 259.365 264.7 259.452 264.477C259.657 263.956 259.647 263.522 259.422 263.176C259.203 262.815 258.818 262.526 258.267 262.309L256.413 261.581L253.872 265.817L255.659 266.519ZM281.475 268.36L272.735 282.925L276.041 284.224L279.249 278.883L281.907 279.927C282.756 280.261 283.575 280.428 284.366 280.429C285.156 280.43 285.886 280.279 286.556 279.974C287.24 279.676 287.846 279.227 288.375 278.626C288.923 278.017 289.373 277.265 289.725 276.372C289.959 275.776 290.078 275.187 290.084 274.605C290.104 274.028 290.008 273.483 289.797 272.971C289.586 272.458 289.251 272 288.791 271.595C288.351 271.182 287.789 270.841 287.104 270.572L281.475 268.36ZM282.491 277.062L280.749 276.378L283.29 272.142L285.032 272.826C285.702 273.089 286.127 273.385 286.308 273.714C286.509 274.034 286.51 274.447 286.311 274.953C286.264 275.072 286.213 275.181 286.157 275.279C286.133 275.34 286.109 275.395 286.084 275.443C286.066 275.478 286.048 275.51 286.029 275.539L285.654 276.165C285.272 276.788 284.839 277.168 284.355 277.305C283.872 277.441 283.25 277.361 282.491 277.062ZM286.442 288.31L295.159 273.737L298.465 275.036L291.265 287.06L298.011 289.71L296.494 292.26L286.442 288.31ZM305.491 289.09L310.966 279.947L307.682 278.657L302.591 287.152C302.329 287.599 302.091 288.03 301.877 288.444C301.668 288.843 301.488 289.237 301.336 289.624C301.084 290.264 300.938 290.877 300.897 291.463C300.862 292.034 300.957 292.578 301.183 293.097C301.43 293.606 301.825 294.088 302.368 294.542C302.933 294.988 303.677 295.392 304.6 295.754C305.717 296.193 306.685 296.419 307.505 296.432C308.34 296.451 309.087 296.28 309.744 295.919C310.416 295.564 311.027 295.039 311.575 294.343C312.138 293.654 312.714 292.823 313.302 291.85L318.627 282.958L315.344 281.668L309.802 290.914C309.514 291.385 309.239 291.801 308.977 292.162C308.714 292.523 308.431 292.807 308.126 293.014C307.836 293.227 307.503 293.354 307.126 293.395C306.755 293.421 306.323 293.337 305.832 293.144C305.147 292.875 304.721 292.536 304.555 292.127C304.404 291.724 304.44 291.239 304.662 290.673C304.727 290.509 304.819 290.296 304.939 290.034C305.074 289.778 305.258 289.463 305.491 289.09ZM317.971 301.008C316.676 300.499 315.596 299.834 314.732 299.014C313.884 298.199 313.37 297.318 313.192 296.371L316.094 295.088C316.322 295.865 316.727 296.54 317.31 297.113C317.899 297.671 318.543 298.087 319.243 298.362C320.092 298.696 320.811 298.746 321.401 298.514C322.012 298.272 322.457 297.794 322.738 297.079C322.943 296.558 322.943 296.12 322.739 295.765C322.556 295.4 322.181 295.021 321.614 294.626L320.213 293.663C319.18 292.965 318.538 292.172 318.286 291.282C318.055 290.383 318.129 289.449 318.51 288.481C318.814 287.707 319.223 287.06 319.737 286.54C320.266 286.025 320.878 285.647 321.575 285.405C322.272 285.163 323.039 285.07 323.877 285.124C324.716 285.178 325.596 285.387 326.52 285.75C327.637 286.188 328.573 286.78 329.329 287.524C330.086 288.268 330.553 289.07 330.73 289.931L327.782 291.068C327.627 290.457 327.339 289.922 326.917 289.464C326.516 288.997 325.98 288.632 325.31 288.369C324.491 288.047 323.807 287.993 323.259 288.207C322.711 288.422 322.314 288.841 322.068 289.467C321.892 289.914 321.892 290.309 322.066 290.652C322.255 291.002 322.665 291.403 323.295 291.857L324.62 292.816C326.577 294.221 327.147 295.967 326.328 298.051C326.012 298.856 325.58 299.537 325.034 300.096C324.509 300.646 323.884 301.054 323.161 301.32C322.438 301.586 321.636 301.7 320.756 301.664C319.883 301.613 318.954 301.395 317.971 301.008ZM158.766 209.134L331.882 277.155C341.649 280.993 346.455 292.021 342.618 301.788C338.78 311.554 327.752 316.361 317.986 312.523L144.87 244.502C135.103 240.664 130.297 229.636 134.134 219.87C137.972 210.103 149 205.297 158.766 209.134ZM130.411 218.407C135.057 206.584 148.407 200.766 160.229 205.411L333.345 273.432C345.168 278.078 350.986 291.428 346.341 303.25C341.695 315.073 328.345 320.891 316.523 316.246L143.407 248.225C131.584 243.579 125.766 230.229 130.411 218.407Z" fill="black"/>
</svg>
