<svg width="1111" height="363" viewBox="0 0 1111 363" fill="none" xmlns="http://www.w3.org/2000/svg">
<path d="M5.95997 169V3.57399H115.691V32.725H41.51V70.645H107.87V99.796H41.51V169H5.95997Z" fill="#1751C3"/>
<path d="M148.067 169V3.57399H253.769V32.725H183.617V70.645H251.399V99.796H183.617V139.849H253.769V169H148.067Z" fill="#1751C3"/>
<path d="M339.708 171.844C325.804 171.844 313.717 169.553 303.447 164.971C293.177 160.389 284.882 154.148 278.562 146.248L299.181 123.496C305.185 130.132 311.742 135.03 318.852 138.19C326.12 141.35 333.467 142.93 340.893 142.93C349.425 142.93 355.903 141.034 360.327 137.242C364.751 133.45 366.963 127.999 366.963 120.889C366.963 115.043 365.225 110.619 361.749 107.617C358.431 104.615 352.743 102.482 344.685 101.218L327.384 98.374C312.532 95.846 301.788 90.395 295.152 82.021C288.516 73.489 285.198 63.14 285.198 50.974C285.198 35.016 290.412 22.692 300.84 14.002C311.268 5.15398 325.883 0.72998 344.685 0.72998C357.483 0.72998 368.622 2.70498 378.102 6.65497C387.582 10.605 395.245 15.977 401.091 22.771L380.946 45.286C376.522 40.388 371.308 36.596 365.304 33.91C359.3 31.066 352.506 29.644 344.922 29.644C328.964 29.644 320.985 36.201 320.985 49.315C320.985 55.003 322.723 59.269 326.199 62.113C329.833 64.957 335.679 67.09 343.737 68.512L361.038 71.593C374.468 73.963 384.817 79.019 392.085 86.761C399.353 94.503 402.987 104.931 402.987 118.045C402.987 125.787 401.644 132.976 398.958 139.612C396.272 146.09 392.243 151.778 386.871 156.676C381.499 161.416 374.863 165.129 366.963 167.815C359.221 170.501 350.136 171.844 339.708 171.844Z" fill="#1751C3"/>
<path d="M502.197 32.725V169H466.647V32.725H419.01V3.57399H549.834V32.725H502.197Z" fill="#1751C3"/>
<path d="M573.205 169V142.693H608.755V29.881H573.205V3.57399H679.855V29.881H644.305V142.693H679.855V169H573.205Z" fill="#1751C3"/>
<path d="M743.515 169L699.67 3.57399H739.249L758.683 87.709L768.4 135.346H770.296L780.25 87.709L799.921 3.57399H837.604L793.759 169H743.515Z" fill="#1751C3"/>
<path d="M942.74 169L932.312 129.184H887.044L876.854 169H840.83L885.622 3.57399H935.867L980.659 169H942.74ZM910.745 37.939H908.849L892.732 100.507H926.861L910.745 37.939Z" fill="#1751C3"/>
<path d="M1003.56 169V3.57399H1039.34V139.849H1110.44V169H1003.56Z" fill="#1751C3"/>
<path d="M35.585 194.574V299.328C35.585 304.542 35.743 309.361 36.059 313.785C36.533 318.051 37.481 321.685 38.903 324.687C40.483 327.689 42.774 330.059 45.776 331.797C48.778 333.377 52.886 334.167 58.1 334.167C63.314 334.167 67.422 333.377 70.424 331.797C73.426 330.059 75.638 327.689 77.06 324.687C78.64 321.685 79.588 318.051 79.904 313.785C80.378 309.361 80.615 304.542 80.615 299.328V194.574H116.165V294.588C116.165 305.964 115.375 315.918 113.795 324.45C112.373 332.982 109.529 340.092 105.263 345.78C100.997 351.468 95.072 355.734 87.488 358.578C79.904 361.422 70.108 362.844 58.1 362.844C46.092 362.844 36.296 361.422 28.712 358.578C21.128 355.734 15.203 351.468 10.937 345.78C6.67097 340.092 3.74797 332.982 2.16797 324.45C0.745973 315.918 0.0349731 305.964 0.0349731 294.588V194.574H35.585Z" fill="#1751C3"/>
<path d="M148.067 360V194.574H257.798V223.725H183.617V261.645H249.977V290.796H183.617V360H148.067Z" fill="#1751C3"/>
<path d="M342.315 362.844C320.195 362.844 303.842 355.339 293.256 340.329C282.828 325.319 277.614 304.305 277.614 277.287C277.614 250.269 282.828 229.255 293.256 214.245C303.842 199.235 320.195 191.73 342.315 191.73C364.435 191.73 380.709 199.235 391.137 214.245C401.723 229.255 407.016 250.269 407.016 277.287C407.016 304.305 401.723 325.319 391.137 340.329C380.709 355.339 364.435 362.844 342.315 362.844ZM342.315 334.167C352.427 334.167 359.379 330.454 363.171 323.028C367.121 315.444 369.096 304.937 369.096 291.507V262.83C369.096 249.558 367.121 239.209 363.171 231.783C359.379 224.199 352.427 220.407 342.315 220.407C332.203 220.407 325.172 224.199 321.222 231.783C317.43 239.209 315.534 249.558 315.534 262.83V291.744C315.534 305.016 317.43 315.444 321.222 323.028C325.172 330.454 332.203 334.167 342.315 334.167Z" fill="#1751C3"/>
</svg>
